<?xml version="1.0" encoding="UTF-8"?>
<svg
   width="500px"
   height="45px"
   viewBox="0 0 1368.5669 123.874"
   xmlns="http://www.w3.org/2000/svg">
  <defs>
    
    <clipPath>
      <path
         d="M 0.480469 0 L 1367.65625 0 L 1367.65625 123.75 L 0.480469 123.75 Z M 0.480469 0 " />
    </clipPath>
    <clipPath>
      <path
         d="M 63 0 L 1305 0 L 1305 123.75 L 63 123.75 Z M 63 0 " />
    </clipPath>
    <clipPath>
      <path
         d="M 139 117 L 149 117 L 149 123.75 L 139 123.75 Z M 139 117 " />
    </clipPath>
    <clipPath>
      <path
         d="M 139 121 L 149 121 L 149 123.75 L 139 123.75 Z M 139 121 " />
    </clipPath>
    <clipPath>
      <path
         d="M 186 117 L 196 117 L 196 123.75 L 186 123.75 Z M 186 117 " />
    </clipPath>
    <clipPath>
      <path
         d="M 186 121 L 196 121 L 196 123.75 L 186 123.75 Z M 186 121 " />
    </clipPath>
    <clipPath>
      <path
         d="M 151 117 L 161 117 L 161 123.75 L 151 123.75 Z M 151 117 " />
    </clipPath>
    <clipPath>
      <path
         d="M 151 121 L 161 121 L 161 123.75 L 151 123.75 Z M 151 121 " />
    </clipPath>
    <clipPath>
      <path
         d="M 162 117 L 172 117 L 172 123.75 L 162 123.75 Z M 162 117 " />
    </clipPath>
    <clipPath>
      <path
         d="M 162 117 L 173 117 L 173 123.75 L 162 123.75 Z M 162 117 " />
    </clipPath>
    <clipPath>
      <path
         d="M 162 121 L 172 121 L 172 123.75 L 162 123.75 Z M 162 121 " />
    </clipPath>
    <clipPath>
      <path
         d="M 162 121 L 173 121 L 173 123.75 L 162 123.75 Z M 162 121 " />
    </clipPath>
    <clipPath>
      <path
         d="M 174 117 L 184 117 L 184 123.75 L 174 123.75 Z M 174 117 " />
    </clipPath>
    <clipPath>
      <path
         d="M 174 121 L 184 121 L 184 123.75 L 174 123.75 Z M 174 121 " />
    </clipPath>
    <clipPath>
      <path
         d="M 204 117 L 214 117 L 214 123.75 L 204 123.75 Z M 204 117 " />
    </clipPath>
    <clipPath>
      <path
         d="M 204 121 L 214 121 L 214 123.75 L 204 123.75 Z M 204 121 " />
    </clipPath>
    <clipPath>
      <path
         d="M 251 117 L 261 117 L 261 123.75 L 251 123.75 Z M 251 117 " />
    </clipPath>
    <clipPath>
      <path
         d="M 251 121 L 261 121 L 261 123.75 L 251 123.75 Z M 251 121 " />
    </clipPath>
    <clipPath>
      <path
         d="M 216 117 L 226 117 L 226 123.75 L 216 123.75 Z M 216 117 " />
    </clipPath>
    <clipPath>
      <path
         d="M 216 121 L 226 121 L 226 123.75 L 216 123.75 Z M 216 121 " />
    </clipPath>
    <clipPath>
      <path
         d="M 228 117 L 238 117 L 238 123.75 L 228 123.75 Z M 228 117 " />
    </clipPath>
    <clipPath>
      <path
         d="M 228 121 L 238 121 L 238 123.75 L 228 123.75 Z M 228 121 " />
    </clipPath>
    <clipPath>
      <path
         d="M 240 117 L 250 117 L 250 123.75 L 240 123.75 Z M 240 117 " />
    </clipPath>
    <clipPath>
      <path
         d="M 240 121 L 250 121 L 250 123.75 L 240 123.75 Z M 240 121 " />
    </clipPath>
    <clipPath>
      <path
         d="M 270 117 L 280 117 L 280 123.75 L 270 123.75 Z M 270 117 " />
    </clipPath>
    <clipPath>
      <path
         d="M 270 121 L 280 121 L 280 123.75 L 270 123.75 Z M 270 121 " />
    </clipPath>
    <clipPath>
      <path
         d="M 317 117 L 327 117 L 327 123.75 L 317 123.75 Z M 317 117 " />
    </clipPath>
    <clipPath>
      <path
         d="M 317 121 L 327 121 L 327 123.75 L 317 123.75 Z M 317 121 " />
    </clipPath>
    <clipPath>
      <path
         d="M 281 117 L 291 117 L 291 123.75 L 281 123.75 Z M 281 117 " />
    </clipPath>
    <clipPath>
      <path
         d="M 281 117 L 292 117 L 292 123.75 L 281 123.75 Z M 281 117 " />
    </clipPath>
    <clipPath>
      <path
         d="M 281 121 L 291 121 L 291 123.75 L 281 123.75 Z M 281 121 " />
    </clipPath>
    <clipPath>
      <path
         d="M 281 121 L 292 121 L 292 123.75 L 281 123.75 Z M 281 121 " />
    </clipPath>
    <clipPath>
      <path
         d="M 293 117 L 303 117 L 303 123.75 L 293 123.75 Z M 293 117 " />
    </clipPath>
    <clipPath>
      <path
         d="M 293 121 L 303 121 L 303 123.75 L 293 123.75 Z M 293 121 " />
    </clipPath>
    <clipPath>
      <path
         d="M 305 117 L 315 117 L 315 123.75 L 305 123.75 Z M 305 117 " />
    </clipPath>
    <clipPath>
      <path
         d="M 305 121 L 315 121 L 315 123.75 L 305 123.75 Z M 305 121 " />
    </clipPath>
    <clipPath>
      <path
         d="M 335 117 L 345 117 L 345 123.75 L 335 123.75 Z M 335 117 " />
    </clipPath>
    <clipPath>
      <path
         d="M 335 121 L 345 121 L 345 123.75 L 335 123.75 Z M 335 121 " />
    </clipPath>
    <clipPath>
      <path
         d="M 382 117 L 392 117 L 392 123.75 L 382 123.75 Z M 382 117 " />
    </clipPath>
    <clipPath>
      <path
         d="M 382 121 L 392 121 L 392 123.75 L 382 123.75 Z M 382 121 " />
    </clipPath>
    <clipPath>
      <path
         d="M 347 117 L 357 117 L 357 123.75 L 347 123.75 Z M 347 117 " />
    </clipPath>
    <clipPath>
      <path
         d="M 347 121 L 357 121 L 357 123.75 L 347 123.75 Z M 347 121 " />
    </clipPath>
    <clipPath>
      <path
         d="M 359 117 L 369 117 L 369 123.75 L 359 123.75 Z M 359 117 " />
    </clipPath>
    <clipPath>
      <path
         d="M 358 117 L 369 117 L 369 123.75 L 358 123.75 Z M 358 117 " />
    </clipPath>
    <clipPath>
      <path
         d="M 359 121 L 369 121 L 369 123.75 L 359 123.75 Z M 359 121 " />
    </clipPath>
    <clipPath>
      <path
         d="M 358 121 L 369 121 L 369 123.75 L 358 123.75 Z M 358 121 " />
    </clipPath>
    <clipPath>
      <path
         d="M 370 117 L 380 117 L 380 123.75 L 370 123.75 Z M 370 117 " />
    </clipPath>
    <clipPath>
      <path
         d="M 370 121 L 380 121 L 380 123.75 L 370 123.75 Z M 370 121 " />
    </clipPath>
    <clipPath>
      <path
         d="M 400 117 L 410 117 L 410 123.75 L 400 123.75 Z M 400 117 " />
    </clipPath>
    <clipPath>
      <path
         d="M 400 121 L 410 121 L 410 123.75 L 400 123.75 Z M 400 121 " />
    </clipPath>
    <clipPath>
      <path
         d="M 447 117 L 457 117 L 457 123.75 L 447 123.75 Z M 447 117 " />
    </clipPath>
    <clipPath>
      <path
         d="M 447 117 L 458 117 L 458 123.75 L 447 123.75 Z M 447 117 " />
    </clipPath>
    <clipPath>
      <path
         d="M 447 121 L 457 121 L 457 123.75 L 447 123.75 Z M 447 121 " />
    </clipPath>
    <clipPath>
      <path
         d="M 447 121 L 458 121 L 458 123.75 L 447 123.75 Z M 447 121 " />
    </clipPath>
    <clipPath>
      <path
         d="M 412 117 L 422 117 L 422 123.75 L 412 123.75 Z M 412 117 " />
    </clipPath>
    <clipPath>
      <path
         d="M 412 121 L 422 121 L 422 123.75 L 412 123.75 Z M 412 121 " />
    </clipPath>
    <clipPath>
      <path
         d="M 424 117 L 434 117 L 434 123.75 L 424 123.75 Z M 424 117 " />
    </clipPath>
    <clipPath>
      <path
         d="M 424 121 L 434 121 L 434 123.75 L 424 123.75 Z M 424 121 " />
    </clipPath>
    <clipPath>
      <path
         d="M 436 117 L 446 117 L 446 123.75 L 436 123.75 Z M 436 117 " />
    </clipPath>
    <clipPath>
      <path
         d="M 436 121 L 446 121 L 446 123.75 L 436 123.75 Z M 436 121 " />
    </clipPath>
    <clipPath>
      <path
         d="M 466 117 L 476 117 L 476 123.75 L 466 123.75 Z M 466 117 " />
    </clipPath>
    <clipPath>
      <path
         d="M 466 121 L 476 121 L 476 123.75 L 466 123.75 Z M 466 121 " />
    </clipPath>
    <clipPath>
      <path
         d="M 513 117 L 523 117 L 523 123.75 L 513 123.75 Z M 513 117 " />
    </clipPath>
    <clipPath>
      <path
         d="M 513 121 L 523 121 L 523 123.75 L 513 123.75 Z M 513 121 " />
    </clipPath>
    <clipPath>
      <path
         d="M 478 117 L 488 117 L 488 123.75 L 478 123.75 Z M 478 117 " />
    </clipPath>
    <clipPath>
      <path
         d="M 477 117 L 488 117 L 488 123.75 L 477 123.75 Z M 477 117 " />
    </clipPath>
    <clipPath>
      <path
         d="M 478 121 L 488 121 L 488 123.75 L 478 123.75 Z M 478 121 " />
    </clipPath>
    <clipPath>
      <path
         d="M 477 121 L 488 121 L 488 123.75 L 477 123.75 Z M 477 121 " />
    </clipPath>
    <clipPath>
      <path
         d="M 489 117 L 499 117 L 499 123.75 L 489 123.75 Z M 489 117 " />
    </clipPath>
    <clipPath>
      <path
         d="M 489 121 L 499 121 L 499 123.75 L 489 123.75 Z M 489 121 " />
    </clipPath>
    <clipPath>
      <path
         d="M 501 117 L 511 117 L 511 123.75 L 501 123.75 Z M 501 117 " />
    </clipPath>
    <clipPath>
      <path
         d="M 501 121 L 511 121 L 511 123.75 L 501 123.75 Z M 501 121 " />
    </clipPath>
    <clipPath>
      <path
         d="M 531 117 L 541 117 L 541 123.75 L 531 123.75 Z M 531 117 " />
    </clipPath>
    <clipPath>
      <path
         d="M 531 121 L 541 121 L 541 123.75 L 531 123.75 Z M 531 121 " />
    </clipPath>
    <clipPath>
      <path
         d="M 578 117 L 588 117 L 588 123.75 L 578 123.75 Z M 578 117 " />
    </clipPath>
    <clipPath>
      <path
         d="M 578 121 L 588 121 L 588 123.75 L 578 123.75 Z M 578 121 " />
    </clipPath>
    <clipPath>
      <path
         d="M 543 117 L 553 117 L 553 123.75 L 543 123.75 Z M 543 117 " />
    </clipPath>
    <clipPath>
      <path
         d="M 543 121 L 553 121 L 553 123.75 L 543 123.75 Z M 543 121 " />
    </clipPath>
    <clipPath>
      <path
         d="M 555 117 L 565 117 L 565 123.75 L 555 123.75 Z M 555 117 " />
    </clipPath>
    <clipPath>
      <path
         d="M 555 121 L 565 121 L 565 123.75 L 555 123.75 Z M 555 121 " />
    </clipPath>
    <clipPath>
      <path
         d="M 566 117 L 576 117 L 576 123.75 L 566 123.75 Z M 566 117 " />
    </clipPath>
    <clipPath>
      <path
         d="M 566 121 L 576 121 L 576 123.75 L 566 123.75 Z M 566 121 " />
    </clipPath>
    <clipPath>
      <path
         d="M 596 117 L 606 117 L 606 123.75 L 596 123.75 Z M 596 117 " />
    </clipPath>
    <clipPath>
      <path
         d="M 596 121 L 606 121 L 606 123.75 L 596 123.75 Z M 596 121 " />
    </clipPath>
    <clipPath>
      <path
         d="M 644 117 L 654 117 L 654 123.75 L 644 123.75 Z M 644 117 " />
    </clipPath>
    <clipPath>
      <path
         d="M 643 117 L 654 117 L 654 123.75 L 643 123.75 Z M 643 117 " />
    </clipPath>
    <clipPath>
      <path
         d="M 644 121 L 654 121 L 654 123.75 L 644 123.75 Z M 644 121 " />
    </clipPath>
    <clipPath>
      <path
         d="M 643 121 L 654 121 L 654 123.75 L 643 123.75 Z M 643 121 " />
    </clipPath>
    <clipPath>
      <path
         d="M 608 117 L 618 117 L 618 123.75 L 608 123.75 Z M 608 117 " />
    </clipPath>
    <clipPath>
      <path
         d="M 608 121 L 618 121 L 618 123.75 L 608 123.75 Z M 608 121 " />
    </clipPath>
    <clipPath>
      <path
         d="M 620 117 L 630 117 L 630 123.75 L 620 123.75 Z M 620 117 " />
    </clipPath>
    <clipPath>
      <path
         d="M 620 121 L 630 121 L 630 123.75 L 620 123.75 Z M 620 121 " />
    </clipPath>
    <clipPath>
      <path
         d="M 632 117 L 642 117 L 642 123.75 L 632 123.75 Z M 632 117 " />
    </clipPath>
    <clipPath>
      <path
         d="M 632 121 L 642 121 L 642 123.75 L 632 123.75 Z M 632 121 " />
    </clipPath>
    <clipPath>
      <path
         d="M 662 117 L 672 117 L 672 123.75 L 662 123.75 Z M 662 117 " />
    </clipPath>
    <clipPath>
      <path
         d="M 662 121 L 672 121 L 672 123.75 L 662 123.75 Z M 662 121 " />
    </clipPath>
    <clipPath>
      <path
         d="M 709 117 L 719 117 L 719 123.75 L 709 123.75 Z M 709 117 " />
    </clipPath>
    <clipPath>
      <path
         d="M 709 121 L 719 121 L 719 123.75 L 709 123.75 Z M 709 121 " />
    </clipPath>
    <clipPath>
      <path
         d="M 674 117 L 684 117 L 684 123.75 L 674 123.75 Z M 674 117 " />
    </clipPath>
    <clipPath>
      <path
         d="M 674 121 L 684 121 L 684 123.75 L 674 123.75 Z M 674 121 " />
    </clipPath>
    <clipPath>
      <path
         d="M 685 117 L 695 117 L 695 123.75 L 685 123.75 Z M 685 117 " />
    </clipPath>
    <clipPath>
      <path
         d="M 685 121 L 695 121 L 695 123.75 L 685 123.75 Z M 685 121 " />
    </clipPath>
    <clipPath>
      <path
         d="M 697 117 L 707 117 L 707 123.75 L 697 123.75 Z M 697 117 " />
    </clipPath>
    <clipPath>
      <path
         d="M 697 121 L 707 121 L 707 123.75 L 697 123.75 Z M 697 121 " />
    </clipPath>
    <clipPath>
      <path
         d="M 727 117 L 737 117 L 737 123.75 L 727 123.75 Z M 727 117 " />
    </clipPath>
    <clipPath>
      <path
         d="M 727 121 L 737 121 L 737 123.75 L 727 123.75 Z M 727 121 " />
    </clipPath>
    <clipPath>
      <path
         d="M 774 117 L 784 117 L 784 123.75 L 774 123.75 Z M 774 117 " />
    </clipPath>
    <clipPath>
      <path
         d="M 774 121 L 784 121 L 784 123.75 L 774 123.75 Z M 774 121 " />
    </clipPath>
    <clipPath>
      <path
         d="M 739 117 L 749 117 L 749 123.75 L 739 123.75 Z M 739 117 " />
    </clipPath>
    <clipPath>
      <path
         d="M 739 121 L 749 121 L 749 123.75 L 739 123.75 Z M 739 121 " />
    </clipPath>
    <clipPath>
      <path
         d="M 751 117 L 761 117 L 761 123.75 L 751 123.75 Z M 751 117 " />
    </clipPath>
    <clipPath>
      <path
         d="M 751 121 L 761 121 L 761 123.75 L 751 123.75 Z M 751 121 " />
    </clipPath>
    <clipPath>
      <path
         d="M 763 117 L 772 117 L 772 123.75 L 763 123.75 Z M 763 117 " />
    </clipPath>
    <clipPath>
      <path
         d="M 762 117 L 773 117 L 773 123.75 L 762 123.75 Z M 762 117 " />
    </clipPath>
    <clipPath>
      <path
         d="M 763 121 L 772 121 L 772 123.75 L 763 123.75 Z M 763 121 " />
    </clipPath>
    <clipPath>
      <path
         d="M 762 121 L 773 121 L 773 123.75 L 762 123.75 Z M 762 121 " />
    </clipPath>
    <clipPath>
      <path
         d="M 792 117 L 802 117 L 802 123.75 L 792 123.75 Z M 792 117 " />
    </clipPath>
    <clipPath>
      <path
         d="M 792 121 L 802 121 L 802 123.75 L 792 123.75 Z M 792 121 " />
    </clipPath>
    <clipPath>
      <path
         d="M 840 117 L 850 117 L 850 123.75 L 840 123.75 Z M 840 117 " />
    </clipPath>
    <clipPath>
      <path
         d="M 840 121 L 850 121 L 850 123.75 L 840 123.75 Z M 840 121 " />
    </clipPath>
    <clipPath>
      <path
         d="M 804 117 L 814 117 L 814 123.75 L 804 123.75 Z M 804 117 " />
    </clipPath>
    <clipPath>
      <path
         d="M 804 121 L 814 121 L 814 123.75 L 804 123.75 Z M 804 121 " />
    </clipPath>
    <clipPath>
      <path
         d="M 816 117 L 826 117 L 826 123.75 L 816 123.75 Z M 816 117 " />
    </clipPath>
    <clipPath>
      <path
         d="M 816 121 L 826 121 L 826 123.75 L 816 123.75 Z M 816 121 " />
    </clipPath>
    <clipPath>
      <path
         d="M 828 117 L 838 117 L 838 123.75 L 828 123.75 Z M 828 117 " />
    </clipPath>
    <clipPath>
      <path
         d="M 828 121 L 838 121 L 838 123.75 L 828 123.75 Z M 828 121 " />
    </clipPath>
    <clipPath>
      <path
         d="M 858 117 L 868 117 L 868 123.75 L 858 123.75 Z M 858 117 " />
    </clipPath>
    <clipPath>
      <path
         d="M 858 121 L 868 121 L 868 123.75 L 858 123.75 Z M 858 121 " />
    </clipPath>
    <clipPath>
      <path
         d="M 905 117 L 915 117 L 915 123.75 L 905 123.75 Z M 905 117 " />
    </clipPath>
    <clipPath>
      <path
         d="M 905 121 L 915 121 L 915 123.75 L 905 123.75 Z M 905 121 " />
    </clipPath>
    <clipPath>
      <path
         d="M 870 117 L 880 117 L 880 123.75 L 870 123.75 Z M 870 117 " />
    </clipPath>
    <clipPath>
      <path
         d="M 870 121 L 880 121 L 880 123.75 L 870 123.75 Z M 870 121 " />
    </clipPath>
    <clipPath>
      <path
         d="M 881 117 L 891 117 L 891 123.75 L 881 123.75 Z M 881 117 " />
    </clipPath>
    <clipPath>
      <path
         d="M 881 117 L 892 117 L 892 123.75 L 881 123.75 Z M 881 117 " />
    </clipPath>
    <clipPath>
      <path
         d="M 881 121 L 891 121 L 891 123.75 L 881 123.75 Z M 881 121 " />
    </clipPath>
    <clipPath>
      <path
         d="M 881 121 L 892 121 L 892 123.75 L 881 123.75 Z M 881 121 " />
    </clipPath>
    <clipPath>
      <path
         d="M 893 117 L 903 117 L 903 123.75 L 893 123.75 Z M 893 117 " />
    </clipPath>
    <clipPath>
      <path
         d="M 893 121 L 903 121 L 903 123.75 L 893 123.75 Z M 893 121 " />
    </clipPath>
    <clipPath>
      <path
         d="M 923 117 L 933 117 L 933 123.75 L 923 123.75 Z M 923 117 " />
    </clipPath>
    <clipPath>
      <path
         d="M 923 121 L 933 121 L 933 123.75 L 923 123.75 Z M 923 121 " />
    </clipPath>
    <clipPath>
      <path
         d="M 970 117 L 980 117 L 980 123.75 L 970 123.75 Z M 970 117 " />
    </clipPath>
    <clipPath>
      <path
         d="M 970 121 L 980 121 L 980 123.75 L 970 123.75 Z M 970 121 " />
    </clipPath>
    <clipPath>
      <path
         d="M 935 117 L 945 117 L 945 123.75 L 935 123.75 Z M 935 117 " />
    </clipPath>
    <clipPath>
      <path
         d="M 935 121 L 945 121 L 945 123.75 L 935 123.75 Z M 935 121 " />
    </clipPath>
    <clipPath>
      <path
         d="M 947 117 L 957 117 L 957 123.75 L 947 123.75 Z M 947 117 " />
    </clipPath>
    <clipPath>
      <path
         d="M 947 121 L 957 121 L 957 123.75 L 947 123.75 Z M 947 121 " />
    </clipPath>
    <clipPath>
      <path
         d="M 959 117 L 969 117 L 969 123.75 L 959 123.75 Z M 959 117 " />
    </clipPath>
    <clipPath>
      <path
         d="M 959 121 L 969 121 L 969 123.75 L 959 123.75 Z M 959 121 " />
    </clipPath>
    <clipPath>
      <path
         d="M 988 117 L 998 117 L 998 123.75 L 988 123.75 Z M 988 117 " />
    </clipPath>
    <clipPath>
      <path
         d="M 988 117 L 999 117 L 999 123.75 L 988 123.75 Z M 988 117 " />
    </clipPath>
    <clipPath>
      <path
         d="M 988 121 L 998 121 L 998 123.75 L 988 123.75 Z M 988 121 " />
    </clipPath>
    <clipPath>
      <path
         d="M 988 121 L 999 121 L 999 123.75 L 988 123.75 Z M 988 121 " />
    </clipPath>
    <clipPath>
      <path
         d="M 1036 117 L 1046 117 L 1046 123.75 L 1036 123.75 Z M 1036 117 " />
    </clipPath>
    <clipPath>
      <path
         d="M 1036 121 L 1046 121 L 1046 123.75 L 1036 123.75 Z M 1036 121 " />
    </clipPath>
    <clipPath>
      <path
         d="M 1000 117 L 1010 117 L 1010 123.75 L 1000 123.75 Z M 1000 117 " />
    </clipPath>
    <clipPath>
      <path
         d="M 1000 121 L 1010 121 L 1010 123.75 L 1000 123.75 Z M 1000 121 " />
    </clipPath>
    <clipPath>
      <path
         d="M 1012 117 L 1022 117 L 1022 123.75 L 1012 123.75 Z M 1012 117 " />
    </clipPath>
    <clipPath>
      <path
         d="M 1012 121 L 1022 121 L 1022 123.75 L 1012 123.75 Z M 1012 121 " />
    </clipPath>
    <clipPath>
      <path
         d="M 1024 117 L 1034 117 L 1034 123.75 L 1024 123.75 Z M 1024 117 " />
    </clipPath>
    <clipPath>
      <path
         d="M 1024 121 L 1034 121 L 1034 123.75 L 1024 123.75 Z M 1024 121 " />
    </clipPath>
    <clipPath>
      <path
         d="M 1054 117 L 1064 117 L 1064 123.75 L 1054 123.75 Z M 1054 117 " />
    </clipPath>
    <clipPath>
      <path
         d="M 1054 121 L 1064 121 L 1064 123.75 L 1054 123.75 Z M 1054 121 " />
    </clipPath>
    <clipPath>
      <path
         d="M 1101 117 L 1111 117 L 1111 123.75 L 1101 123.75 Z M 1101 117 " />
    </clipPath>
    <clipPath>
      <path
         d="M 1101 121 L 1111 121 L 1111 123.75 L 1101 123.75 Z M 1101 121 " />
    </clipPath>
    <clipPath>
      <path
         d="M 1066 117 L 1076 117 L 1076 123.75 L 1066 123.75 Z M 1066 117 " />
    </clipPath>
    <clipPath>
      <path
         d="M 1066 121 L 1076 121 L 1076 123.75 L 1066 123.75 Z M 1066 121 " />
    </clipPath>
    <clipPath>
      <path
         d="M 1078 117 L 1088 117 L 1088 123.75 L 1078 123.75 Z M 1078 117 " />
    </clipPath>
    <clipPath>
      <path
         d="M 1077 117 L 1088 117 L 1088 123.75 L 1077 123.75 Z M 1077 117 " />
    </clipPath>
    <clipPath>
      <path
         d="M 1078 121 L 1088 121 L 1088 123.75 L 1078 123.75 Z M 1078 121 " />
    </clipPath>
    <clipPath>
      <path
         d="M 1077 121 L 1088 121 L 1088 123.75 L 1077 123.75 Z M 1077 121 " />
    </clipPath>
    <clipPath>
      <path
         d="M 1089 117 L 1099 117 L 1099 123.75 L 1089 123.75 Z M 1089 117 " />
    </clipPath>
    <clipPath>
      <path
         d="M 1089 121 L 1099 121 L 1099 123.75 L 1089 123.75 Z M 1089 121 " />
    </clipPath>
    <clipPath>
      <path
         d="M 1119 117 L 1129 117 L 1129 123.75 L 1119 123.75 Z M 1119 117 " />
    </clipPath>
    <clipPath>
      <path
         d="M 1119 121 L 1129 121 L 1129 123.75 L 1119 123.75 Z M 1119 121 " />
    </clipPath>
    <clipPath>
      <path
         d="M 1166 117 L 1176 117 L 1176 123.75 L 1166 123.75 Z M 1166 117 " />
    </clipPath>
    <clipPath>
      <path
         d="M 1166 117 L 1177 117 L 1177 123.75 L 1166 123.75 Z M 1166 117 " />
    </clipPath>
    <clipPath>
      <path
         d="M 1166 121 L 1176 121 L 1176 123.75 L 1166 123.75 Z M 1166 121 " />
    </clipPath>
    <clipPath>
      <path
         d="M 1166 121 L 1177 121 L 1177 123.75 L 1166 123.75 Z M 1166 121 " />
    </clipPath>
    <clipPath>
      <path
         d="M 1131 117 L 1141 117 L 1141 123.75 L 1131 123.75 Z M 1131 117 " />
    </clipPath>
    <clipPath>
      <path
         d="M 1131 121 L 1141 121 L 1141 123.75 L 1131 123.75 Z M 1131 121 " />
    </clipPath>
    <clipPath>
      <path
         d="M 1143 117 L 1153 117 L 1153 123.75 L 1143 123.75 Z M 1143 117 " />
    </clipPath>
    <clipPath>
      <path
         d="M 1143 121 L 1153 121 L 1153 123.75 L 1143 123.75 Z M 1143 121 " />
    </clipPath>
    <clipPath>
      <path
         d="M 1155 117 L 1165 117 L 1165 123.75 L 1155 123.75 Z M 1155 117 " />
    </clipPath>
    <clipPath>
      <path
         d="M 1155 121 L 1165 121 L 1165 123.75 L 1155 123.75 Z M 1155 121 " />
    </clipPath>
    <clipPath>
      <path
         d="M 70 119 L 80 119 L 80 123.75 L 70 123.75 Z M 70 119 " />
    </clipPath>
    <clipPath>
      <path
         d="M 1188 117 L 1198 117 L 1198 123.75 L 1188 123.75 Z M 1188 117 " />
    </clipPath>
    <clipPath>
      <path
         d="M 1188 121 L 1198 121 L 1198 123.75 L 1188 123.75 Z M 1188 121 " />
    </clipPath>
    <clipPath>
      <path
         d="M 1234 117 L 1244 117 L 1244 123.75 L 1234 123.75 Z M 1234 117 " />
    </clipPath>
    <clipPath>
      <path
         d="M 1234 121 L 1244 121 L 1244 123.75 L 1234 123.75 Z M 1234 121 " />
    </clipPath>
    <clipPath>
      <path
         d="M 1200 117 L 1210 117 L 1210 123.75 L 1200 123.75 Z M 1200 117 " />
    </clipPath>
    <clipPath>
      <path
         d="M 1200 121 L 1210 121 L 1210 123.75 L 1200 123.75 Z M 1200 121 " />
    </clipPath>
    <clipPath>
      <path
         d="M 1211 117 L 1221 117 L 1221 123.75 L 1211 123.75 Z M 1211 117 " />
    </clipPath>
    <clipPath>
      <path
         d="M 1211 121 L 1221 121 L 1221 123.75 L 1211 123.75 Z M 1211 121 " />
    </clipPath>
    <clipPath>
      <path
         d="M 1222 117 L 1232 117 L 1232 123.75 L 1222 123.75 Z M 1222 117 " />
    </clipPath>
    <clipPath>
      <path
         d="M 1222 117 L 1233 117 L 1233 123.75 L 1222 123.75 Z M 1222 117 " />
    </clipPath>
    <clipPath>
      <path
         d="M 1222 121 L 1232 121 L 1232 123.75 L 1222 123.75 Z M 1222 121 " />
    </clipPath>
    <clipPath>
      <path
         d="M 1222 121 L 1233 121 L 1233 123.75 L 1222 123.75 Z M 1222 121 " />
    </clipPath>
    <clipPath>
      <path
         d="M 1280 117 L 1290 117 L 1290 123.75 L 1280 123.75 Z M 1280 117 " />
    </clipPath>
    <clipPath>
      <path
         d="M 1280 121 L 1290 121 L 1290 123.75 L 1280 123.75 Z M 1280 121 " />
    </clipPath>
    <clipPath>
      <path
         d="M 1246 117 L 1256 117 L 1256 123.75 L 1246 123.75 Z M 1246 117 " />
    </clipPath>
    <clipPath>
      <path
         d="M 1245 117 L 1256 117 L 1256 123.75 L 1245 123.75 Z M 1245 117 " />
    </clipPath>
    <clipPath>
      <path
         d="M 1246 121 L 1256 121 L 1256 123.75 L 1246 123.75 Z M 1246 121 " />
    </clipPath>
    <clipPath>
      <path
         d="M 1245 121 L 1256 121 L 1256 123.75 L 1245 123.75 Z M 1245 121 " />
    </clipPath>
    <clipPath>
      <path
         d="M 1257 117 L 1267 117 L 1267 123.75 L 1257 123.75 Z M 1257 117 " />
    </clipPath>
    <clipPath>
      <path
         d="M 1257 121 L 1267 121 L 1267 123.75 L 1257 123.75 Z M 1257 121 " />
    </clipPath>
    <clipPath>
      <path
         d="M 1269 117 L 1279 117 L 1279 123.75 L 1269 123.75 Z M 1269 117 " />
    </clipPath>
    <clipPath>
      <path
         d="M 1268 117 L 1279 117 L 1279 123.75 L 1268 123.75 Z M 1268 117 " />
    </clipPath>
    <clipPath>
      <path
         d="M 1269 121 L 1279 121 L 1279 123.75 L 1269 123.75 Z M 1269 121 " />
    </clipPath>
    <clipPath>
      <path
         d="M 1268 121 L 1279 121 L 1279 123.75 L 1268 123.75 Z M 1268 121 " />
    </clipPath>
    <clipPath>
      <path
         d="M 1292 117 L 1298 117 L 1298 123.75 L 1292 123.75 Z M 1292 117 " />
    </clipPath>
    <clipPath>
      <path
         d="M 1292 121 L 1298 121 L 1298 123.75 L 1292 123.75 Z M 1292 121 " />
    </clipPath>
  </defs>
  <g>
    <path
       style="fill-rule:evenodd;fill:rgb(69%, 68%, 67%);fill-opacity:1;stroke-width:5;stroke-linecap:round;stroke-linejoin:round;stroke:rgb(0%, 0%, 0%);stroke-opacity:1;stroke-miterlimit:10"
       d="M 42.012109 1.9927625 L 36.997526 2.9890875 L 32.978203 4.0237326 L 28.99716 6.0163826 L 25.016117 6.9743873 L 21.992055 10.001682 L 18.011012 11.994332 L 12.001168 18.010602 L 10.010647 21.995902 L 6.9865852 24.984877 L 5.9913244 29.008497 L 4.0008028 32.993797 L 2.9672628 37.017417 L 2.0102813 41.999042 L 2.0102813 837.98605 L 2.9672628 843.00599 L 4.0008028 846.99129 L 5.9913244 851.01491 L 6.9865852 855.00021 L 10.010647 857.98919 L 12.001168 862.01281 L 18.011012 867.99076 L 21.992055 870.02173 L 25.016117 873.0107 L 28.99716 875.00335 L 36.997526 876.996 L 42.012109 877.99233 L 9689.9936 877.99233 L 9694.9699 876.996 L 9703.0085 875.00335 L 9706.9896 873.0107 L 9710.0136 870.02173 L 9713.9947 867.99076 L 9716.9805 865.00178 L 9720.0045 862.01281 L 9721.995 857.98919 L 9724.9808 855.00021 L 9727.0096 851.01491 L 9728.0049 846.99129 L 9729.0002 843.00599 L 9729.9954 837.98605 L 9729.9954 45.984342 L 9729.9954 41.999042 L 9729.0002 37.017417 L 9728.0049 32.993797 L 9727.0096 29.008497 L 9724.9808 24.984877 L 9721.995 21.995902 L 9720.0045 18.010602 L 9716.9805 15.021627 L 9713.9947 11.994332 L 9710.0136 10.001682 L 9706.9896 6.9743873 L 9703.0085 6.0163826 L 9698.9892 4.0237326 L 9694.9699 2.9890875 L 9689.9936 1.9927625 L 42.012109 1.9927625 z M 95.985867 22.992227 L 225.02526 22.992227 L 231.99208 23.988552 L 244.01177 28.012172 L 249.02635 31.001147 L 254.99792 33.990122 L 260.0125 38.013742 L 263.99354 41.999042 L 268.01287 45.984342 L 271.99391 51.004287 L 275.01797 56.982237 L 278.00375 62.002182 L 279.99427 67.980131 L 281.9848 73.996401 L 282.98006 81.008996 L 282.98006 86.986946 L 282.98006 93.003216 L 281.9848 100.01581 L 279.99427 105.99376 L 278.00375 112.01003 L 275.01797 116.99166 L 271.99391 123.00793 L 268.01287 127.98955 L 260.0125 135.99847 L 254.99792 139.98377 L 249.02635 143.01107 L 244.01177 146.00004 L 231.99208 150.02366 L 225.02526 151.01999 L 95.985867 151.01999 L 89.019041 150.02366 L 76.999353 146.00004 L 71.98477 143.01107 L 66.013205 139.98377 L 60.998622 135.99847 L 52.998257 127.98955 L 48.978934 123.00793 L 45.993152 116.99166 L 43.00737 112.01003 L 41.016848 105.99376 L 38.988047 100.01581 L 37.992787 93.003216 L 37.992787 81.008996 L 38.988047 73.996401 L 41.016848 67.980131 L 43.00737 62.002182 L 45.993152 56.982237 L 48.978934 51.004287 L 52.998257 45.984342 L 56.9793 41.999042 L 60.998622 38.013742 L 66.013205 33.990122 L 71.98477 31.001147 L 76.999353 28.012172 L 89.019041 23.988552 L 95.985867 22.992227 z M 9508.014 22.992227 L 9637.0151 22.992227 L 9644.0202 23.988552 L 9649.9918 26.019522 L 9656.0016 28.012172 L 9661.0162 31.001147 L 9667.026 33.990122 L 9672.0023 38.013742 L 9675.9834 41.999042 L 9680.0027 45.984342 L 9683.9837 51.004287 L 9687.0078 56.982237 L 9689.9936 62.002182 L 9692.0224 67.980131 L 9694.0129 73.996401 L 9694.9699 81.008996 L 9694.9699 86.986946 L 9694.9699 93.003216 L 9694.0129 100.01581 L 9692.0224 105.99376 L 9689.9936 112.01003 L 9687.0078 116.99166 L 9683.9837 123.00793 L 9680.0027 127.98955 L 9672.0023 135.99847 L 9667.026 139.98377 L 9661.0162 143.01107 L 9656.0016 146.00004 L 9649.9918 147.99269 L 9644.0202 150.02366 L 9637.0151 151.01999 L 9508.014 151.01999 L 9501.0089 150.02366 L 9488.9892 146.00004 L 9484.0129 143.01107 L 9478.003 139.98377 L 9472.9885 135.99847 L 9469.0074 132.01317 L 9465.0264 127.98955 L 9461.007 123.00793 L 9458.0213 116.99166 L 9454.9972 112.01003 L 9453.0067 105.99376 L 9450.9779 100.01581 L 9449.9826 93.003216 L 9449.9826 81.008996 L 9450.9779 73.996401 L 9453.0067 67.980131 L 9454.9972 62.002182 L 9458.0213 56.982237 L 9461.007 51.004287 L 9465.0264 45.984342 L 9472.9885 38.013742 L 9478.003 33.990122 L 9484.0129 31.001147 L 9488.9892 28.012172 L 9501.0089 23.988552 L 9508.014 22.992227 z M 95.985867 729.99975 L 225.02526 729.99975 L 231.99208 730.99608 L 244.01177 735.0197 L 249.02635 738.00867 L 254.99792 740.99765 L 260.0125 745.02127 L 263.99354 749.00657 L 268.01287 752.99187 L 271.99391 758.01181 L 275.01797 763.98976 L 278.00375 769.00971 L 279.99427 774.98766 L 281.9848 781.00393 L 282.98006 787.9782 L 282.98006 793.99447 L 282.98006 800.01074 L 281.9848 807.02333 L 279.99427 813.00128 L 278.00375 819.01755 L 275.01797 823.99918 L 271.99391 830.01545 L 268.01287 834.99707 L 260.0125 843.00599 L 254.99792 846.99129 L 249.02635 849.98027 L 244.01177 853.00756 L 231.99208 856.99286 L 225.02526 857.98919 L 95.985867 857.98919 L 89.019041 856.99286 L 76.999353 853.00756 L 71.98477 849.98027 L 66.013205 846.99129 L 60.998622 843.00599 L 52.998257 834.99707 L 48.978934 830.01545 L 45.993152 823.99918 L 43.00737 819.01755 L 41.016848 813.00128 L 38.988047 807.02333 L 37.992787 800.01074 L 37.992787 787.9782 L 38.988047 781.00393 L 41.016848 774.98766 L 43.00737 769.00971 L 45.993152 763.98976 L 48.978934 758.01181 L 52.998257 752.99187 L 56.9793 749.00657 L 60.998622 745.02127 L 66.013205 740.99765 L 71.98477 738.00867 L 76.999353 735.0197 L 89.019041 730.99608 L 95.985867 729.99975 z M 9508.014 729.99975 L 9637.0151 729.99975 L 9644.0202 730.99608 L 9649.9918 732.98873 L 9656.0016 735.0197 L 9661.0162 738.00867 L 9667.026 740.99765 L 9672.0023 745.02127 L 9675.9834 749.00657 L 9680.0027 752.99187 L 9683.9837 758.01181 L 9687.0078 763.98976 L 9689.9936 769.00971 L 9692.0224 774.98766 L 9694.0129 781.00393 L 9694.9699 787.9782 L 9694.9699 793.99447 L 9694.9699 800.01074 L 9694.0129 807.02333 L 9692.0224 813.00128 L 9689.9936 819.01755 L 9687.0078 823.99918 L 9683.9837 830.01545 L 9680.0027 834.99707 L 9672.0023 843.00599 L 9667.026 846.99129 L 9661.0162 849.98027 L 9656.0016 853.00756 L 9649.9918 855.00021 L 9644.0202 856.99286 L 9637.0151 857.98919 L 9508.014 857.98919 L 9501.0089 856.99286 L 9488.9892 853.00756 L 9484.0129 849.98027 L 9478.003 846.99129 L 9472.9885 843.00599 L 9469.0074 838.98237 L 9465.0264 834.99707 L 9461.007 830.01545 L 9458.0213 823.99918 L 9454.9972 819.01755 L 9453.0067 813.00128 L 9450.9779 807.02333 L 9449.9826 800.01074 L 9449.9826 787.9782 L 9450.9779 781.00393 L 9453.0067 774.98766 L 9454.9972 769.00971 L 9458.0213 763.98976 L 9461.007 758.01181 L 9465.0264 752.99187 L 9469.0074 749.00657 L 9472.9885 745.02127 L 9478.003 740.99765 L 9484.0129 738.00867 L 9488.9892 735.0197 L 9501.0089 730.99608 L 9508.014 729.99975 z "
       transform="matrix(0.14045401,0,0,0.14030399,0.47898995,-1.57939e-5)" />
    <g
       clip-path="url(#clip2)"
       clip-rule="nonzero"
       style="display:inline">
      <path
         style="fill:#b0aeab;fill-opacity:1;fill-rule:evenodd;stroke:#000000;stroke-width:5;stroke-linecap:round;stroke-linejoin:round;stroke-miterlimit:10;stroke-opacity:1"
         d="M 9282.0119,2.004688 H 450.00313 V 878.00425 H 9282.0119 Z m 0,0"
         transform="matrix(0.140454,0,0,0.140304,0.47899,-1.57939e-5)" />
    </g>
    <path
       style="fill-rule:evenodd;fill:rgb(0%,0%,0%);fill-opacity:1;stroke-width:1;stroke-linecap:round;stroke-linejoin:round;stroke:rgb(0%,0%,0%);stroke-opacity:1;stroke-miterlimit:10;"
       d="M 9078.986815 150.009191 L 8759.013704 150.009191 L 8759.013704 418.00982 L 9078.986815 418.00982 Z M 9078.986815 150.009191 "
       transform="matrix(0.140454,0,0,0.140304,0.47899,-0.0000157939)" />
    <path
       style="fill-rule:evenodd;fill:rgb(93.72406%,93.72406%,93.72406%);fill-opacity:1;stroke-width:1;stroke-linecap:round;stroke-linejoin:round;stroke:rgb(0%,0%,0%);stroke-opacity:1;stroke-miterlimit:10;"
       d="M 9076.010968 152.988213 L 8762.990771 152.988213 L 8762.990771 416.005245 L 9076.010968 416.005245 Z M 9076.010968 152.988213 "
       transform="matrix(0.140454,0,0,0.140304,0.47899,-0.0000157939)" />
    <path
       style="fill-rule:evenodd;fill:rgb(0%,0%,0%);fill-opacity:1;stroke-width:1;stroke-linecap:round;stroke-linejoin:round;stroke:rgb(0%,0%,0%);stroke-opacity:1;stroke-miterlimit:10;"
       d="M 9078.986815 525.004046 L 8759.013704 525.004046 L 8759.013704 793.004675 L 9078.986815 793.004675 Z M 9078.986815 525.004046 "
       transform="matrix(0.140454,0,0,0.140304,0.47899,-0.0000157939)" />
    <path
       style="fill-rule:evenodd;fill:rgb(93.72406%,93.72406%,93.72406%);fill-opacity:1;stroke-width:1;stroke-linecap:round;stroke-linejoin:round;stroke:rgb(0%,0%,0%);stroke-opacity:1;stroke-miterlimit:10;"
       d="M 9076.010968 528.01091 L 8762.990771 528.01091 L 8762.990771 791.0001 L 9076.010968 791.0001 Z M 9076.010968 528.01091 "
       transform="matrix(0.140454,0,0,0.140304,0.47899,-0.0000157939)" />
    <path
       style="fill-rule:evenodd;fill:rgb(0%,38.822937%,89.802551%);fill-opacity:1;stroke-width:1;stroke-linecap:round;stroke-linejoin:round;stroke:rgb(0%,38.822937%,89.802551%);stroke-opacity:1;stroke-miterlimit:10;"
       d="M 152.99169 0.034858449 L 151.98968 0.9726172 L 149.98565 0.9726172 L 149.98565 2.0275958 L 148.98364 2.0275958 L 147.98163 3.0239645 L 146.97962 3.0239645 L 146.97962 4.0203331 L 145.9776 4.0203331 L 145.9776 5.0167018 L 144.97559 5.0167018 L 144.97559 6.0130705 L 144.03621 7.0094392 L 144.03621 8.0058078 L 143.0342 9.0021765 L 143.0342 10.994914 L 143.0342 81.971529 L 144.03621 81.971529 L 144.03621 83.964267 L 144.97559 83.964267 L 144.97559 85.019245 L 145.9776 86.015614 L 146.97962 87.011983 L 147.98163 87.011983 L 147.98163 88.008351 L 148.98364 88.008351 L 149.98565 89.00472 L 151.98968 89.00472 L 152.99169 90.001089 L 256.01102 90.001089 L 256.01102 89.00472 L 258.01504 89.00472 L 258.95443 88.008351 L 259.95644 88.008351 L 259.95644 87.011983 L 260.95845 87.011983 L 261.96047 86.015614 L 262.96248 85.019245 L 262.96248 83.964267 L 263.96449 83.964267 L 263.96449 81.971529 L 264.9665 81.971529 L 264.9665 9.0021765 L 263.96449 8.0058078 L 263.96449 7.0094392 L 262.96248 6.0130705 L 262.96248 5.0167018 L 261.96047 5.0167018 L 261.96047 4.0203331 L 260.95845 4.0203331 L 260.95845 3.0239645 L 259.95644 3.0239645 L 258.95443 2.0275958 L 258.01504 2.0275958 L 258.01504 0.9726172 L 256.01102 0.9726172 L 256.01102 0.034858449 L 152.99169 0.034858449 z M -0.0029829656 0.9726172 L -0.0029829656 90.001089 L 25.986697 90.001089 L 25.986697 11.991283 L 70.951975 90.001089 L 129.00603 90.001089 L 129.00603 0.9726172 L 103.01635 0.9726172 L 103.01635 77.986055 L 58.990459 0.9726172 L -0.0029829656 0.9726172 z M 279.99668 0.9726172 L 279.99668 90.001089 L 304.98435 90.001089 L 304.98435 0.9726172 L 279.99668 0.9726172 z M 354.0203 0.9726172 L 305.98636 45.985037 L 354.0203 90.001089 L 385.02003 90.001089 L 337.98811 45.985037 L 386.02205 0.9726172 L 354.0203 0.9726172 z M 398.98557 0.9726172 L 398.98557 90.001089 L 424.03587 90.001089 L 424.03587 0.9726172 L 398.98557 0.9726172 z M 477.01724 0.9726172 L 432.99135 90.001089 L 464.9931 90.001089 L 475.01322 71.011474 L 533.00465 71.011474 L 524.98855 55.010965 L 481.96467 55.010965 L 503.00692 12.987651 L 504.00893 12.987651 L 543.02476 90.001089 L 573.96188 90.001089 L 529.99861 0.9726172 L 477.01724 0.9726172 z M 169.96326 24.006317 L 238.03743 24.006317 L 238.03743 25.002685 L 239.03945 25.002685 L 239.03945 25.999054 L 240.04146 25.999054 L 240.04146 64.036893 L 239.03945 64.036893 L 239.03945 64.974652 L 238.03743 64.974652 L 238.03743 66.029631 L 169.96326 66.029631 L 169.96326 64.974652 L 168.96125 64.974652 L 168.96125 64.036893 L 167.95924 64.036893 L 167.95924 27.991791 L 167.95924 25.999054 L 168.96125 25.999054 L 168.96125 25.002685 L 169.96326 25.002685 L 169.96326 24.006317 z "
       transform="matrix(0.0858509,0,0,0.0917332,68.472933,5.045313)" />
    <path
       style="fill:#000000;fill-opacity:1;fill-rule:evenodd;stroke:#000000;stroke-width:1;stroke-linecap:round;stroke-linejoin:round;stroke-miterlimit:10;stroke-opacity:1"
       d="M 194.00525,-0.0110201 V 10.998363 h 15.98842 V 41.999208 H 277.006 v 3.012798 -3.012798 69.012782 h -7.0071 v 35.98463 h 7.0071 v 77.99486 H 20.996664 v -77.99486 h 7.007098 V 111.01199 H 20.996664 V 41.999208 45.012006 41.999208 H 88.008992 V 10.998363 H 103.99741 V -0.0110201 Z"
       transform="matrix(0.140483,0,0,0.138731,1232.23,21.919498)" />
    <path
       style="fill-rule:evenodd;fill:rgb(0%,0%,0%);fill-opacity:1;stroke-width:1;stroke-linecap:round;stroke-linejoin:round;stroke:rgb(8.627319%,8.627319%,8.627319%);stroke-opacity:1;stroke-miterlimit:10;"
       d="M -0.0043069 0.00255074 L -0.0043069 153.00763 L 64.000427 153.00763 L 64.000427 188.992262 L 90.005854 188.992262 L 90.005854 225.005051 L 166.00447 225.005051 L 166.00447 188.992262 L 192.009896 188.992262 L 192.009896 153.00763 L 255.986607 153.00763 L 255.986607 0.00255074 Z M -0.0043069 0.00255074 "
       transform="matrix(0.139394,0,0,0.138731,1235.649038,76.99574)" />
  </g>
  <g
     style="display:inline">
    <path
       style="fill:#303030;fill-opacity:1;fill-rule:evenodd;stroke:#000000;stroke-width:1;stroke-linecap:round;stroke-linejoin:round;stroke-miterlimit:10;stroke-opacity:1"
       d="m 732.98674,408.98923 v 8.0183 H 861.0038 v -8.0183 h 76.00925 V 217.99772 H 657.00529 v 190.99151 z m 0,0"
       transform="matrix(0.140454,0,0,0.140304,0.47899,-1.57939e-5)"
       id="33" />
    <path
       style="fill:#303030;fill-opacity:1;fill-rule:evenodd;stroke:#000000;stroke-width:1;stroke-linecap:round;stroke-linejoin:round;stroke-miterlimit:10;stroke-opacity:1"
       d="m 732.98674,522.99947 v -7.99046 H 861.0038 v 7.99046 h 76.00925 V 713.99099 H 657.00529 V 522.99947 Z m 0,0"
       transform="matrix(0.140454,0,0,0.140304,0.47899,-1.57939e-5)"
       id="34" />
    <path
       style="fill:#303030;fill-opacity:1;fill-rule:evenodd;stroke:#000000;stroke-width:1;stroke-linecap:round;stroke-linejoin:round;stroke-miterlimit:10;stroke-opacity:1"
       d="M 1393.013,213.98856 H 984.98816 V 409.99152 H 1393.013 Z m 0,0"
       transform="matrix(0.140454,0,0,0.140304,0.47899,-1.57939e-5)"
       id="1" />
    <path
       style="fill:#303030;fill-opacity:1;fill-rule:evenodd;stroke:#000000;stroke-width:1;stroke-linecap:round;stroke-linejoin:round;stroke-miterlimit:10;stroke-opacity:1"
       d="M 1393.013,520.9949 H 984.98816 V 716.99785 H 1393.013 Z m 0,0"
       transform="matrix(0.140454,0,0,0.140304,0.47899,-1.57939e-5)"
       id="2" />
    <path
       style="fill:#303030;fill-opacity:1;fill-rule:evenodd;stroke:#000000;stroke-width:1;stroke-linecap:round;stroke-linejoin:round;stroke-miterlimit:10;stroke-opacity:1"
       d="m 1857.9961,213.98856 h -407.997 v 196.00296 h 407.997 z m 0,0"
       transform="matrix(0.140454,0,0,0.140304,0.47899,-1.57939e-5)"
       id="3" />
    <path
       style="fill:#303030;fill-opacity:1;fill-rule:evenodd;stroke:#000000;stroke-width:1;stroke-linecap:round;stroke-linejoin:round;stroke-miterlimit:10;stroke-opacity:1"
       d="m 1857.9961,520.9949 h -407.997 v 196.00295 h 407.997 z m 0,0"
       transform="matrix(0.140454,0,0,0.140304,0.47899,-1.57939e-5)"
       id="4" />
    <path
       style="fill:#303030;fill-opacity:1;fill-rule:evenodd;stroke:#000000;stroke-width:1;stroke-linecap:round;stroke-linejoin:round;stroke-miterlimit:10;stroke-opacity:1"
       d="m 2324.0082,213.98856 h -407.997 v 196.00296 h 407.997 z m 0,0"
       transform="matrix(0.140454,0,0,0.140304,0.47899,-1.57939e-5)"
       id="5" />
    <path
       style="fill:#303030;fill-opacity:1;fill-rule:evenodd;stroke:#000000;stroke-width:1;stroke-linecap:round;stroke-linejoin:round;stroke-miterlimit:10;stroke-opacity:1"
       d="m 2324.0082,520.9949 h -407.997 v 196.00295 h 407.997 z m 0,0"
       transform="matrix(0.140454,0,0,0.140304,0.47899,-1.57939e-5)"
       id="6" />
    <path
       style="fill:#303030;fill-opacity:1;fill-rule:evenodd;stroke:#000000;stroke-width:1;stroke-linecap:round;stroke-linejoin:round;stroke-miterlimit:10;stroke-opacity:1"
       d="m 2788.9913,213.98856 h -407.997 v 196.00296 h 407.997 z m 0,0"
       transform="matrix(0.140454,0,0,0.140304,0.47899,-1.57939e-5)"
       id="7" />
    <path
       style="fill:#303030;fill-opacity:1;fill-rule:evenodd;stroke:#000000;stroke-width:1;stroke-linecap:round;stroke-linejoin:round;stroke-miterlimit:10;stroke-opacity:1"
       d="m 2788.9913,520.9949 h -407.997 v 196.00295 h 407.997 z m 0,0"
       transform="matrix(0.140454,0,0,0.140304,0.47899,-1.57939e-5)"
       id="8" />
    <path
       style="fill:#303030;fill-opacity:1;fill-rule:evenodd;stroke:#000000;stroke-width:1;stroke-linecap:round;stroke-linejoin:round;stroke-miterlimit:10;stroke-opacity:1"
       d="m 3254.0022,213.98856 h -407.997 v 196.00296 h 407.997 z m 0,0"
       transform="matrix(0.140454,0,0,0.140304,0.47899,-1.57939e-5)"
       id="9" />
    <path
       style="fill:#303030;fill-opacity:1;fill-rule:evenodd;stroke:#000000;stroke-width:1;stroke-linecap:round;stroke-linejoin:round;stroke-miterlimit:10;stroke-opacity:1"
       d="m 3254.0022,520.9949 h -407.997 v 196.00295 h 407.997 z m 0,0"
       transform="matrix(0.140454,0,0,0.140304,0.47899,-1.57939e-5)"
       id="10" />
    <path
       style="fill:#303030;fill-opacity:1;fill-rule:evenodd;stroke:#000000;stroke-width:1;stroke-linecap:round;stroke-linejoin:round;stroke-miterlimit:10;stroke-opacity:1"
       d="m 3719.9865,213.98856 h -407.997 v 196.00296 h 407.997 z m 0,0"
       transform="matrix(0.140454,0,0,0.140304,0.47899,-1.57939e-5)"
       id="11" />
    <path
       style="fill:#303030;fill-opacity:1;fill-rule:evenodd;stroke:#000000;stroke-width:1;stroke-linecap:round;stroke-linejoin:round;stroke-miterlimit:10;stroke-opacity:1"
       d="m 3719.9865,520.9949 h -407.997 v 196.00295 h 407.997 z m 0,0"
       transform="matrix(0.140454,0,0,0.140304,0.47899,-1.57939e-5)"
       id="12" />
    <path
       style="fill:#303030;fill-opacity:1;fill-rule:evenodd;stroke:#000000;stroke-width:1;stroke-linecap:round;stroke-linejoin:round;stroke-miterlimit:10;stroke-opacity:1"
       d="m 4184.9974,213.98856 h -407.997 v 196.00296 h 407.997 z m 0,0"
       transform="matrix(0.140454,0,0,0.140304,0.47899,-1.57939e-5)"
       id="13" />
    <path
       style="fill:#303030;fill-opacity:1;fill-rule:evenodd;stroke:#000000;stroke-width:1;stroke-linecap:round;stroke-linejoin:round;stroke-miterlimit:10;stroke-opacity:1"
       d="m 4184.9974,520.9949 h -407.997 v 196.00295 h 407.997 z m 0,0"
       transform="matrix(0.140454,0,0,0.140304,0.47899,-1.57939e-5)"
       id="14" />
    <path
       style="fill:#303030;fill-opacity:1;fill-rule:evenodd;stroke:#000000;stroke-width:1;stroke-linecap:round;stroke-linejoin:round;stroke-miterlimit:10;stroke-opacity:1"
       d="m 4650.0083,213.98856 h -407.997 v 196.00296 h 407.997 z m 0,0"
       transform="matrix(0.140454,0,0,0.140304,0.47899,-1.57939e-5)"
       id="15" />
    <path
       style="fill:#303030;fill-opacity:1;fill-rule:evenodd;stroke:#000000;stroke-width:1;stroke-linecap:round;stroke-linejoin:round;stroke-miterlimit:10;stroke-opacity:1"
       d="m 4650.0083,520.9949 h -407.997 v 196.00295 h 407.997 z m 0,0"
       transform="matrix(0.140454,0,0,0.140304,0.47899,-1.57939e-5)"
       id="16" />
    <path
       style="fill:#303030;fill-opacity:1;fill-rule:evenodd;stroke:#000000;stroke-width:1;stroke-linecap:round;stroke-linejoin:round;stroke-miterlimit:10;stroke-opacity:1"
       d="m 5115.9926,213.98856 h -407.997 v 196.00296 h 407.997 z m 0,0"
       transform="matrix(0.140454,0,0,0.140304,0.47899,-1.57939e-5)"
       id="17" />
    <path
       style="fill:#303030;fill-opacity:1;fill-rule:evenodd;stroke:#000000;stroke-width:1;stroke-linecap:round;stroke-linejoin:round;stroke-miterlimit:10;stroke-opacity:1"
       d="m 5115.9926,520.9949 h -407.997 v 196.00295 h 407.997 z m 0,0"
       transform="matrix(0.140454,0,0,0.140304,0.47899,-1.57939e-5)"
       id="18" />
    <path
       style="fill:#303030;fill-opacity:1;fill-rule:evenodd;stroke:#000000;stroke-width:1;stroke-linecap:round;stroke-linejoin:round;stroke-miterlimit:10;stroke-opacity:1"
       d="m 5581.0035,213.98856 h -407.997 v 196.00296 h 407.997 z m 0,0"
       transform="matrix(0.140454,0,0,0.140304,0.47899,-1.57939e-5)"
       id="19" />
    <path
       style="fill:#303030;fill-opacity:1;fill-rule:evenodd;stroke:#000000;stroke-width:1;stroke-linecap:round;stroke-linejoin:round;stroke-miterlimit:10;stroke-opacity:1"
       d="m 5581.0035,520.9949 h -407.997 v 196.00295 h 407.997 z m 0,0"
       transform="matrix(0.140454,0,0,0.140304,0.47899,-1.57939e-5)"
       id="20" />
    <path
       style="fill:#303030;fill-opacity:1;fill-rule:evenodd;stroke:#000000;stroke-width:1;stroke-linecap:round;stroke-linejoin:round;stroke-miterlimit:10;stroke-opacity:1"
       d="m 6045.9866,213.98856 h -407.997 v 196.00296 h 407.997 z m 0,0"
       transform="matrix(0.140454,0,0,0.140304,0.47899,-1.57939e-5)"
       id="21" />
    <path
       style="fill:#303030;fill-opacity:1;fill-rule:evenodd;stroke:#000000;stroke-width:1;stroke-linecap:round;stroke-linejoin:round;stroke-miterlimit:10;stroke-opacity:1"
       d="m 6045.9866,520.9949 h -407.997 v 196.00295 h 407.997 z m 0,0"
       transform="matrix(0.140454,0,0,0.140304,0.47899,-1.57939e-5)"
       id="22" />
    <path
       style="fill:#303030;fill-opacity:1;fill-rule:evenodd;stroke:#000000;stroke-width:1;stroke-linecap:round;stroke-linejoin:round;stroke-miterlimit:10;stroke-opacity:1"
       d="m 6511.9987,213.98856 h -407.997 v 196.00296 h 407.997 z m 0,0"
       transform="matrix(0.140454,0,0,0.140304,0.47899,-1.57939e-5)"
       id="23" />
    <path
       style="fill:#303030;fill-opacity:1;fill-rule:evenodd;stroke:#000000;stroke-width:1;stroke-linecap:round;stroke-linejoin:round;stroke-miterlimit:10;stroke-opacity:1"
       d="m 6511.9987,520.9949 h -407.997 v 196.00295 h 407.997 z m 0,0"
       transform="matrix(0.140454,0,0,0.140304,0.47899,-1.57939e-5)"
       id="24" />
    <path
       style="fill:#303030;fill-opacity:1;fill-rule:evenodd;stroke:#000000;stroke-width:1;stroke-linecap:round;stroke-linejoin:round;stroke-miterlimit:10;stroke-opacity:1"
       d="m 6977.0096,213.98856 h -407.997 v 196.00296 h 407.997 z m 0,0"
       transform="matrix(0.140454,0,0,0.140304,0.47899,-1.57939e-5)"
       id="25" />
    <path
       style="fill:#303030;fill-opacity:1;fill-rule:evenodd;stroke:#000000;stroke-width:1;stroke-linecap:round;stroke-linejoin:round;stroke-miterlimit:10;stroke-opacity:1"
       d="m 6977.0096,520.9949 h -407.997 v 196.00295 h 407.997 z m 0,0"
       transform="matrix(0.140454,0,0,0.140304,0.47899,-1.57939e-5)"
       id="26" />
    <path
       style="fill:#303030;fill-opacity:1;fill-rule:evenodd;stroke:#000000;stroke-width:1;stroke-linecap:round;stroke-linejoin:round;stroke-miterlimit:10;stroke-opacity:1"
       d="m 7441.9927,213.98856 h -407.997 v 196.00296 h 407.997 z m 0,0"
       transform="matrix(0.140454,0,0,0.140304,0.47899,-1.57939e-5)"
       id="27" />
    <path
       style="fill:#303030;fill-opacity:1;fill-rule:evenodd;stroke:#000000;stroke-width:1;stroke-linecap:round;stroke-linejoin:round;stroke-miterlimit:10;stroke-opacity:1"
       d="m 7441.9927,520.9949 h -407.997 v 196.00295 h 407.997 z m 0,0"
       transform="matrix(0.140454,0,0,0.140304,0.47899,-1.57939e-5)"
       id="28" />
    <path
       style="fill:#303030;fill-opacity:1;fill-rule:evenodd;stroke:#000000;stroke-width:1;stroke-linecap:round;stroke-linejoin:round;stroke-miterlimit:10;stroke-opacity:1"
       d="m 7908.0048,213.98856 h -407.997 v 196.00296 h 407.997 z m 0,0"
       transform="matrix(0.140454,0,0,0.140304,0.47899,-1.57939e-5)"
       id="29" />
    <path
       style="fill:#303030;fill-opacity:1;fill-rule:evenodd;stroke:#000000;stroke-width:1;stroke-linecap:round;stroke-linejoin:round;stroke-miterlimit:10;stroke-opacity:1"
       d="m 7908.0048,520.9949 h -407.997 v 196.00295 h 407.997 z m 0,0"
       transform="matrix(0.140454,0,0,0.140304,0.47899,-1.57939e-5)"
       id="30" />
    <path
       style="fill:#303030;fill-opacity:1;fill-rule:evenodd;stroke:#000000;stroke-width:1;stroke-linecap:round;stroke-linejoin:round;stroke-miterlimit:10;stroke-opacity:1"
       d="m 8372.9879,213.98856 h -407.997 v 196.00296 h 407.997 z m 0,0"
       transform="matrix(0.140454,0,0,0.140304,0.47899,-1.57939e-5)"
       id="31" />
    <path
       style="fill:#303030;fill-opacity:1;fill-rule:evenodd;stroke:#000000;stroke-width:1;stroke-linecap:round;stroke-linejoin:round;stroke-miterlimit:10;stroke-opacity:1"
       d="m 8372.9879,520.9949 h -407.997 v 196.00295 h 407.997 z m 0,0"
       transform="matrix(0.140454,0,0,0.140304,0.47899,-1.57939e-5)"
       id="32" />
  </g>
</svg>
