<?xml version="1.0" encoding="UTF-8" standalone="no"?>
<svg
   width="500px"
   height="47px"
   viewBox="0 0 1368.5669 128.126"
   version="1.2"
   id="svg2754"
   sodipodi:docname="7730 SXR-1X-44S.svg"
   inkscape:version="1.4.3 (0d15f75, 2025-12-25)"
   xmlns:inkscape="http://www.inkscape.org/namespaces/inkscape"
   xmlns:sodipodi="http://sodipodi.sourceforge.net/DTD/sodipodi-0.dtd"
   xmlns="http://www.w3.org/2000/svg"
   xmlns:svg="http://www.w3.org/2000/svg">
  <sodipodi:namedview
     id="namedview1"
     pagecolor="#ffffff"
     bordercolor="#000000"
     borderopacity="0.25"
     inkscape:showpageshadow="2"
     inkscape:pageopacity="0.0"
     inkscape:pagecheckerboard="0"
     inkscape:deskcolor="#d1d1d1"
     inkscape:zoom="7.3563992"
     inkscape:cx="407.26447"
     inkscape:cy="26.031758"
     inkscape:window-width="1512"
     inkscape:window-height="916"
     inkscape:window-x="0"
     inkscape:window-y="38"
     inkscape:window-maximized="1"
     inkscape:current-layer="g2754" />
  <defs
     id="defs61" />
  <g
     id="surface1"
     style="display:inline">
    <path
       id="path62"
       style="display:inline;fill:#dcdcdc;fill-opacity:1;fill-rule:evenodd;stroke:#000000;stroke-opacity:1"
       d="M 6.9331055,0.27685547 6.375,0.55810547 5.9575195,0.69580078 5.1210938,1.5307617 4.9804688,1.949707 4.6992188,2.5078125 V 124.47217 l 0.28125,0.55957 0.140625,0.41748 0.8364257,0.83642 0.4174805,0.13624 0.5581055,0.27685 H 1360.9219 l 0.5581,-0.27685 0.4189,-0.13624 0.4219,-0.41894 0.4175,-0.41748 0.1406,-0.41748 0.2769,-0.55957 V 3.0629883 2.5078125 l -0.2769,-0.5581055 -0.1406,-0.4189453 -0.4175,-0.4174804 -0.4219,-0.41748052 -0.4189,-0.13769531 -0.5581,-0.28125 z M 21.738281,5.4301758 H 39.75 l 0.977051,0.140625 0.839355,0.2768555 0.836426,0.2768554 0.698731,0.4189453 0.839355,0.4174805 0.695801,0.5581055 0.558105,0.5551758 0.559571,0.5581054 0.558105,0.6958008 0.421875,0.836426 0.41748,0.694336 0.278321,0.836426 0.28125,0.836425 0.140625,0.972657 v 0.83496 0.836426 l -0.140625,0.977051 -0.28125,0.832031 -0.278321,0.834961 -0.41748,0.700196 -0.421875,0.832031 -0.558105,0.69873 -0.559571,0.555176 -0.558105,0.558106 -0.695801,0.555175 -0.839355,0.417481 -0.698731,0.41748 -0.836426,0.28125 L 40.727051,23.11377 39.75,23.25 H 21.738281 l -0.97998,-0.13623 -0.836426,-0.278321 -0.839355,-0.28125 -0.695801,-0.41748 -0.839356,-0.417481 -0.700195,-0.555175 -0.558105,-0.558106 -0.558106,-0.555176 -0.55957,-0.69873 -0.417481,-0.832031 -0.41748,-0.700196 -0.28125,-0.834961 -0.278321,-0.832031 -0.140625,-0.977051 v -1.671386 l 0.140625,-0.972657 0.278321,-0.836425 0.28125,-0.836426 0.41748,-0.694336 0.417481,-0.836426 0.55957,-0.6958008 L 16.289063,8.0742188 16.847168,7.519043 17.547363,6.9609375 18.386719,6.543457 19.08252,6.1245117 19.921875,5.8476563 20.758301,5.5708008 Z m 1306.507319,0 h 18.0161 l 0.9771,0.140625 0.8349,0.2768555 0.8409,0.2768554 0.6987,0.4189453 0.8364,0.4174805 0.6987,0.5581055 0.5581,0.5551758 0.5596,0.5581054 0.5581,0.6958008 0.4175,0.836426 0.4189,0.694336 0.2813,0.836426 0.2769,0.836425 0.1406,0.972657 v 0.83496 0.836426 l -0.1406,0.977051 -0.2769,0.832031 -0.2813,0.834961 -0.4189,0.700196 -0.4175,0.832031 -0.5581,0.69873 -0.5596,0.555176 -0.5581,0.558106 -0.6987,0.555175 -0.8364,0.417481 -0.6987,0.41748 -0.8409,0.28125 -0.8349,0.278321 -0.9771,0.13623 h -18.0161 l -0.9756,-0.13623 -0.8408,-0.278321 -0.835,-0.28125 -0.7002,-0.41748 -0.8349,-0.417481 -0.7002,-0.555175 -0.5581,-0.558106 -0.5581,-0.555176 -0.5596,-0.69873 -0.4175,-0.832031 -0.4218,-0.700196 -0.2769,-0.834961 -0.2813,-0.832031 -0.1377,-0.977051 v -1.671386 l 0.1377,-0.972657 0.2813,-0.836425 0.2769,-0.836426 0.4218,-0.694336 0.4175,-0.836426 0.5596,-0.6958008 0.5581,-0.5581054 0.5581,-0.5551758 0.7002,-0.5581055 0.8349,-0.4174805 0.7002,-0.4189453 0.835,-0.2768554 0.8408,-0.2768555 z M 21.738281,103.86768 H 39.75 l 0.977051,0.14062 0.839355,0.27686 0.836426,0.27685 0.698731,0.41895 0.839355,0.41748 0.695801,0.5581 0.558105,0.55518 0.559571,0.5581 0.558105,0.69581 0.421875,0.83642 0.41748,0.69434 0.278321,0.83642 0.28125,0.83643 0.140625,0.97265 v 0.83497 0.83642 l -0.140625,0.97266 -0.28125,0.83642 -0.278321,0.83496 -0.41748,0.69581 -0.421875,0.83642 -0.558105,0.69434 -1.117676,1.11767 -0.695801,0.55518 -0.839355,0.41748 -0.698731,0.41748 -0.836426,0.27832 -0.839355,0.28125 L 39.75,121.6875 H 21.738281 l -0.97998,-0.13623 -0.836426,-0.28125 -0.839355,-0.27832 -0.695801,-0.41748 -0.839356,-0.41748 -0.700195,-0.55518 -1.116211,-1.11767 -0.55957,-0.69434 -0.417481,-0.83642 -0.41748,-0.69581 -0.28125,-0.83496 -0.278321,-0.83642 -0.140625,-0.97266 v -1.67139 l 0.140625,-0.97265 0.278321,-0.83643 0.28125,-0.83642 0.41748,-0.69434 0.417481,-0.83642 0.55957,-0.69581 0.558106,-0.5581 0.558105,-0.55518 0.700195,-0.5581 0.839356,-0.41748 0.695801,-0.41895 0.839355,-0.27685 0.836426,-0.27686 z m 1306.507319,0 h 18.0161 l 0.9771,0.14062 0.8349,0.27686 0.8409,0.27685 0.6987,0.41895 0.8364,0.41748 0.6987,0.5581 0.5581,0.55518 0.5596,0.5581 0.5581,0.69581 0.4175,0.83642 0.4189,0.69434 0.2813,0.83642 0.2769,0.83643 0.1406,0.97265 v 0.83497 0.83642 l -0.1406,0.97266 -0.2769,0.83642 -0.2813,0.83496 -0.4189,0.69581 -0.4175,0.83642 -0.5581,0.69434 -1.1177,1.11767 -0.6987,0.55518 -0.8364,0.41748 -0.6987,0.41748 -0.8409,0.27832 -0.8349,0.28125 -0.9771,0.13623 h -18.0161 l -0.9756,-0.13623 -0.8408,-0.28125 -0.835,-0.27832 -0.7002,-0.41748 -0.8349,-0.41748 -0.7002,-0.55518 -1.1162,-1.11767 -0.5596,-0.69434 -0.4175,-0.83642 -0.4218,-0.69581 -0.2769,-0.83496 -0.2813,-0.83642 -0.1377,-0.97266 v -1.67139 l 0.1377,-0.97265 0.2813,-0.83643 0.2769,-0.83642 0.4218,-0.69434 0.4175,-0.83642 0.5596,-0.69581 0.5581,-0.5581 0.5581,-0.55518 0.7002,-0.5581 0.8349,-0.41748 0.7002,-0.41895 0.835,-0.27685 0.8408,-0.27686 z"
       inkscape:label="BASE_PANEL" />
    <path
       style="display:inline;fill:#cfcfcf;fill-opacity:1;fill-rule:evenodd;stroke:#000000;stroke-opacity:1"
       d="M 1315.1211,0.277344 H 52.878906 V 126.69922 H 1315.1211 Z m 0,0"
       id="path70" />
    <path
       style="display:inline;fill:#979797;fill-opacity:1;fill-rule:evenodd;stroke:#7a7a7a;stroke-width:0.14016;stroke-linecap:round;stroke-linejoin:round;stroke-miterlimit:10;stroke-opacity:1"
       d="M 1314.6591,20.887103 H 53.409663 V 125.16774 H 174.04495 V 109.43738 H 1193.0372 v 14.48037 h 121.6219 z m 0,0"
       id="path72"
       inkscape:label="TOP_PANEL" />
    <path
       id="path2639"
       style="display:inline;fill:#ffffff;fill-opacity:1;fill-rule:evenodd;stroke:#ffffff;stroke-width:1;stroke-linecap:round;stroke-linejoin:round;stroke-miterlimit:10;stroke-opacity:1"
       d="m 152.98583,0.01054383 -0.97209,0.96561996 h -1.99626 V 1.9935134 h -1.02417 L 147.9865,3.010863 h -0.97209 v 1.0001064 h -1.02417 v 0.9656199 h -0.97209 v 1.0173496 l -1.02417,1.0173496 v 1.0001064 l -1.00681,0.96562 v 2.0346991 70.99031 h 1.00681 v 1.98297 h 1.02417 V 84.9851 l 0.97209,1.01735 1.02417,1.017349 h 0.97209 v 0.96562 h 1.00681 l 1.02417,1.000107 h 1.99626 l 0.97209,1.017349 h 103.04176 v -1.017349 h 1.9789 l 0.97209,-1.000107 h 1.02417 v -0.96562 h 1.02417 l 0.97209,-1.017349 1.00681,-1.01735 v -1.000106 h 0.97209 v -1.98297 h 1.02417 V 8.9770149 l -1.02417,-0.96562 V 7.0112885 L 263.00582,5.9939389 V 4.9765893 h -1.00681 V 4.0109694 h -0.97209 V 3.010863 h -1.02417 l -1.02417,-1.0173496 h -0.97209 V 0.97616379 h -1.9789 V 0.01054383 Z M -0.01450806,0.97616379 V 90.002875 H 26.006313 V 12.01182 L 71.000287,90.002875 H 128.99599 V 0.97616379 H 102.99253 V 78.001599 L 59.005365,0.97616379 Z m 280.01457806,0 V 90.002875 h 24.99666 V 0.97616379 Z m 74.01787,0 -47.99705,45.02203021 47.99705,44.004681 h 30.96807 L 337.99578,45.998194 386.01018,0.97616379 Z m 44.99397,0 V 90.002875 h 24.99666 V 0.97616379 Z m 77.99303,0 -44.02188,89.02671121 h 32.04432 l 9.99866,-18.984778 h 57.9957 l -8.0024,-16.001702 H 482.00427 L 502.97368,12.97744 h 1.02417 l 39.02255,77.025435 h 30.96808 L 530.01867,0.97616379 Z M 170.0148,24.013097 h 67.99437 v 0.96562 h 0.97209 v 1.01735 h 1.02417 v 37.986799 h -1.02417 v 1.000106 h -0.97209 v 1.01735 H 170.0148 v -1.01735 h -1.02416 v -1.000106 h -1.00681 V 28.013523 25.996067 h 1.00681 v -1.01735 h 1.02416 z"
       transform="matrix(0.0843863,0,0,0.0849519,62.563236,22.342366)" />
  </g>
  <g
     id="g2754"
     inkscape:label="ports"
     style="display:inline">
    <path
       style="fill:#303030;fill-opacity:1;fill-rule:evenodd;stroke:#000000;stroke-width:1;stroke-linecap:round;stroke-linejoin:round;stroke-miterlimit:10;stroke-opacity:1"
       d="m 4826.0055,223.99672 h -407.0059 v 195.99727 h 407.0059 z m 0,0"
       transform="matrix(0.139644,0,0,0.139232,4.42107,2.32812e-5)"
       id="21" />
    <path
       style="fill:#303030;fill-opacity:1;fill-rule:evenodd;stroke:#000000;stroke-width:1;stroke-linecap:round;stroke-linejoin:round;stroke-miterlimit:10;stroke-opacity:1"
       d="m 4826.0055,495.99694 h -407.0059 v 195.99727 h 407.0059 z m 0,0"
       transform="matrix(0.139644,0,0,0.139232,4.42107,2.32812e-5)"
       id="22" />
    <path
       style="fill:#303030;fill-opacity:1;fill-rule:evenodd;stroke:#000000;stroke-width:1;stroke-linecap:round;stroke-linejoin:round;stroke-miterlimit:10;stroke-opacity:1"
       d="m 7487.9923,514.99066 v -14.98175 h 128.0041 v 14.98175 h 74.9954 v 192.01336 h -45.9875 l -14.9935,13.99981 h -19.0215 l -16.0006,-13.99981 H 7412.9969 V 514.99066 Z m 0,0"
       transform="matrix(0.139644,0,0,0.139232,4.42107,2.32812e-5)"
       id="40" />
    <path
       style="fill:#303030;fill-opacity:1;fill-rule:evenodd;stroke:#000000;stroke-width:1;stroke-linecap:round;stroke-linejoin:round;stroke-miterlimit:10;stroke-opacity:1"
       d="m 5977.0072,418.00203 v 15.00981 h -128.0041 v -15.00981 h -74.9954 V 225.98867 h 45.9875 l 14.9935,-13.9998 h 19.0216 l 16.0005,13.9998 h 181.9918 v 192.01336 z m 0,0"
       transform="matrix(0.139644,0,0,0.139232,4.42107,2.32812e-5)"
       id="29" />
    <path
       style="fill:#303030;fill-opacity:1;fill-rule:evenodd;stroke:#000000;stroke-width:1;stroke-linecap:round;stroke-linejoin:round;stroke-miterlimit:10;stroke-opacity:1"
       d="m 5559.9869,514.99066 v -14.98175 h 128.0041 v 14.98175 h 74.9954 v 192.01336 h -45.9875 l -14.9935,13.99981 h -18.9936 l -16.0005,-13.99981 H 5484.9915 V 514.99066 Z m 0,0"
       transform="matrix(0.139644,0,0,0.139232,4.42107,2.32812e-5)"
       id="28" />
    <path
       style="fill:#303030;fill-opacity:1;fill-rule:evenodd;stroke:#000000;stroke-width:1;stroke-linecap:round;stroke-linejoin:round;stroke-miterlimit:10;stroke-opacity:1"
       d="m 8450.009,223.99672 h -407.006 v 195.99727 h 407.006 z m 0,0"
       transform="matrix(0.139644,0,0,0.139232,4.42107,2.32812e-5)"
       id="43" />
    <path
       style="fill:#303030;fill-opacity:1;fill-rule:evenodd;stroke:#000000;stroke-width:1;stroke-linecap:round;stroke-linejoin:round;stroke-miterlimit:10;stroke-opacity:1"
       d="m 8450.009,495.99694 h -407.006 v 195.99727 h 407.006 z m 0,0"
       transform="matrix(0.139644,0,0,0.139232,4.42107,2.32812e-5)"
       id="44" />
    <path
       style="fill:#303030;fill-opacity:1;fill-rule:evenodd;stroke:#000000;stroke-width:1;stroke-linecap:round;stroke-linejoin:round;stroke-miterlimit:10;stroke-opacity:1"
       d="m 1327.013,514.99066 v -14.98175 h 127.9761 v 14.98175 h 75.0234 v 192.01336 h -46.0154 l -14.9935,13.99981 H 1450.01 l -16.0006,-13.99981 H 1251.9897 V 514.99066 Z m 0,0"
       transform="matrix(0.139644,0,0,0.139232,4.42107,2.32812e-5)"
       id="2" />
    <path
       style="fill:#303030;fill-opacity:1;fill-rule:evenodd;stroke:#000000;stroke-width:1;stroke-linecap:round;stroke-linejoin:round;stroke-miterlimit:10;stroke-opacity:1"
       d="m 1616.0013,514.99066 v -14.98175 h 128.004 v 14.98175 h 74.9954 v 192.01336 h -45.9875 l -15.0214,13.99981 h -18.9936 l -16.0005,-13.99981 H 1541.0059 V 514.99066 Z m 0,0"
       transform="matrix(0.139644,0,0,0.139232,4.42107,2.32812e-5)"
       id="4" />
    <path
       style="fill:#303030;fill-opacity:1;fill-rule:evenodd;stroke:#000000;stroke-width:1;stroke-linecap:round;stroke-linejoin:round;stroke-miterlimit:10;stroke-opacity:1"
       d="m 1905.9965,514.99066 v -14.98175 h 128.0041 v 14.98175 h 74.9954 v 192.01336 h -45.9875 l -15.0215,13.99981 h -18.9936 l -16.0005,-13.99981 H 1831.0011 V 514.99066 Z m 0,0"
       transform="matrix(0.139644,0,0,0.139232,4.42107,2.32812e-5)"
       id="6" />
    <path
       style="fill:#303030;fill-opacity:1;fill-rule:evenodd;stroke:#000000;stroke-width:1;stroke-linecap:round;stroke-linejoin:round;stroke-miterlimit:10;stroke-opacity:1"
       d="m 2195.0127,514.99066 v -14.98175 h 127.9761 v 14.98175 h 75.0234 v 192.01336 h -46.0155 l -14.9935,13.99981 h -18.9936 l -16.0005,-13.99981 H 2119.9893 V 514.99066 Z m 0,0"
       transform="matrix(0.139644,0,0,0.139232,4.42107,2.32812e-5)"
       id="8" />
    <path
       style="fill:#303030;fill-opacity:1;fill-rule:evenodd;stroke:#000000;stroke-width:1;stroke-linecap:round;stroke-linejoin:round;stroke-miterlimit:10;stroke-opacity:1"
       d="m 2485.0079,514.99066 v -14.98175 h 128.0041 v 14.98175 h 74.9954 v 192.01336 h -46.0155 l -14.9934,13.99981 h -18.9936 l -16.0006,-13.99981 H 2410.0125 V 514.99066 Z m 0,0"
       transform="matrix(0.139644,0,0,0.139232,4.42107,2.32812e-5)"
       id="10" />
    <path
       style="fill:#303030;fill-opacity:1;fill-rule:evenodd;stroke:#000000;stroke-width:1;stroke-linecap:round;stroke-linejoin:round;stroke-miterlimit:10;stroke-opacity:1"
       d="m 2773.9961,514.99066 v -14.98175 h 128.0041 v 14.98175 h 74.9954 v 192.01336 h -45.9875 l -15.0214,13.99981 h -18.9936 l -16.0005,-13.99981 H 2699.0008 V 514.99066 Z m 0,0"
       transform="matrix(0.139644,0,0,0.139232,4.42107,2.32812e-5)"
       id="12" />
    <path
       style="fill:#303030;fill-opacity:1;fill-rule:evenodd;stroke:#000000;stroke-width:1;stroke-linecap:round;stroke-linejoin:round;stroke-miterlimit:10;stroke-opacity:1"
       d="m 2902.0002,418.00203 v 15.00981 h -128.0041 v -15.00981 h -74.9953 V 225.98867 h 45.9874 l 15.0215,-13.9998 h 18.9936 l 16.0005,13.9998 h 181.9918 v 192.01336 z m 0,0"
       transform="matrix(0.139644,0,0,0.139232,4.42107,2.32812e-5)"
       id="11" />
    <path
       style="fill:#303030;fill-opacity:1;fill-rule:evenodd;stroke:#000000;stroke-width:1;stroke-linecap:round;stroke-linejoin:round;stroke-miterlimit:10;stroke-opacity:1"
       d="m 2613.012,418.00203 v 15.00981 h -128.0041 v -15.00981 h -74.9954 V 225.98867 H 2456 l 14.9935,-13.9998 h 18.9936 l 16.0005,13.9998 h 182.0198 v 192.01336 z m 0,0"
       transform="matrix(0.139644,0,0,0.139232,4.42107,2.32812e-5)"
       id="9" />
    <path
       style="fill:#303030;fill-opacity:1;fill-rule:evenodd;stroke:#000000;stroke-width:1;stroke-linecap:round;stroke-linejoin:round;stroke-miterlimit:10;stroke-opacity:1"
       d="m 2322.9888,418.00203 v 15.00981 h -127.9761 v -15.00981 h -75.0234 V 225.98867 h 46.0155 l 14.9935,-13.9998 h 18.9936 l 16.0005,13.9998 h 182.0198 v 192.01336 z m 0,0"
       transform="matrix(0.139644,0,0,0.139232,4.42107,2.32812e-5)"
       id="7" />
    <path
       style="fill:#303030;fill-opacity:1;fill-rule:evenodd;stroke:#000000;stroke-width:1;stroke-linecap:round;stroke-linejoin:round;stroke-miterlimit:10;stroke-opacity:1"
       d="m 2034.0006,418.00203 v 15.00981 h -128.0041 v -15.00981 h -74.9954 V 225.98867 h 45.9875 l 15.0214,-13.9998 h 18.9936 l 16.0006,13.9998 h 181.9918 v 192.01336 z m 0,0"
       transform="matrix(0.139644,0,0,0.139232,4.42107,2.32812e-5)"
       id="5" />
    <path
       style="fill:#303030;fill-opacity:1;fill-rule:evenodd;stroke:#000000;stroke-width:1;stroke-linecap:round;stroke-linejoin:round;stroke-miterlimit:10;stroke-opacity:1"
       d="m 1744.0053,418.00203 v 15.00981 h -128.004 v -15.00981 h -74.9954 V 225.98867 h 45.9874 l 14.9935,-13.9998 h 19.0216 l 16.0005,13.9998 h 181.9918 v 192.01336 z m 0,0"
       transform="matrix(0.139644,0,0,0.139232,4.42107,2.32812e-5)"
       id="3" />
    <path
       style="fill:#303030;fill-opacity:1;fill-rule:evenodd;stroke:#000000;stroke-width:1;stroke-linecap:round;stroke-linejoin:round;stroke-miterlimit:10;stroke-opacity:1"
       d="m 1454.9891,418.00203 v 15.00981 H 1327.013 v -15.00981 h -75.0233 V 225.98867 h 46.0154 c 16.564,-21.20231 33.373,-14.53713 49.9876,0 h 182.0198 v 192.01336 z"
       transform="matrix(0.139644,0,0,0.139232,4.42107,2.32812e-5)"
       id="1"
       sodipodi:nodetypes="ccccccccccc" />
    <path
       style="fill:#303030;fill-opacity:1;fill-rule:evenodd;stroke:#000000;stroke-width:1;stroke-linecap:round;stroke-linejoin:round;stroke-miterlimit:10;stroke-opacity:1"
       d="m 4253.9873,418.00203 v 15.00981 h -127.9761 v -15.00981 h -75.0234 V 225.98867 h 46.0155 l 14.9935,-13.9998 h 18.9936 l 16.0005,13.9998 h 182.0198 v 192.01336 z m 0,0"
       transform="matrix(0.139644,0,0,0.139232,4.42107,2.32812e-5)"
       id="19" />
    <path
       style="fill:#303030;fill-opacity:1;fill-rule:evenodd;stroke:#000000;stroke-width:1;stroke-linecap:round;stroke-linejoin:round;stroke-miterlimit:10;stroke-opacity:1"
       d="m 3964.9991,418.00203 v 15.00981 H 3836.995 v -15.00981 h -74.9954 V 225.98867 h 45.9875 l 15.0215,-13.9998 h 18.9936 l 16.0005,13.9998 h 181.9918 v 192.01336 z m 0,0"
       transform="matrix(0.139644,0,0,0.139232,4.42107,2.32812e-5)"
       id="17" />
    <path
       style="fill:#303030;fill-opacity:1;fill-rule:evenodd;stroke:#000000;stroke-width:1;stroke-linecap:round;stroke-linejoin:round;stroke-miterlimit:10;stroke-opacity:1"
       d="m 3675.0038,418.00203 v 15.00981 h -128.004 v -15.00981 h -74.9954 V 225.98867 h 45.9875 l 15.0214,-13.9998 h 18.9936 l 16.0005,13.9998 h 181.9918 v 192.01336 z m 0,0"
       transform="matrix(0.139644,0,0,0.139232,4.42107,2.32812e-5)"
       id="15" />
    <path
       style="fill:#303030;fill-opacity:1;fill-rule:evenodd;stroke:#000000;stroke-width:1;stroke-linecap:round;stroke-linejoin:round;stroke-miterlimit:10;stroke-opacity:1"
       d="m 3385.9877,418.00203 v 15.00981 h -127.9761 v -15.00981 h -75.0234 V 225.98867 h 46.0154 l 14.9935,-13.9998 h 18.9936 l 16.0005,13.9998 h 182.0198 v 192.01336 z m 0,0"
       transform="matrix(0.139644,0,0,0.139232,4.42107,2.32812e-5)"
       id="13" />
    <path
       style="fill:#303030;fill-opacity:1;fill-rule:evenodd;stroke:#000000;stroke-width:1;stroke-linecap:round;stroke-linejoin:round;stroke-miterlimit:10;stroke-opacity:1"
       d="m 3258.0116,514.99066 v -14.98175 h 127.9761 v 14.98175 h 75.0233 v 192.01336 h -46.0154 l -14.9935,13.99981 h -18.9936 L 3365.008,707.00402 H 3182.9882 V 514.99066 Z m 0,0"
       transform="matrix(0.139644,0,0,0.139232,4.42107,2.32812e-5)"
       id="14" />
    <path
       style="fill:#303030;fill-opacity:1;fill-rule:evenodd;stroke:#000000;stroke-width:1;stroke-linecap:round;stroke-linejoin:round;stroke-miterlimit:10;stroke-opacity:1"
       d="m 3546.9998,514.99066 v -14.98175 h 128.004 v 14.98175 h 74.9954 v 192.01336 h -45.9874 l -15.0215,13.99981 h -18.9936 l -16.0005,-13.99981 H 3472.0044 V 514.99066 Z m 0,0"
       transform="matrix(0.139644,0,0,0.139232,4.42107,2.32812e-5)"
       id="16" />
    <path
       style="fill:#303030;fill-opacity:1;fill-rule:evenodd;stroke:#000000;stroke-width:1;stroke-linecap:round;stroke-linejoin:round;stroke-miterlimit:10;stroke-opacity:1"
       d="m 3836.995,514.99066 v -14.98175 h 128.0041 v 14.98175 h 74.9954 v 192.01336 h -45.9875 l -14.9935,13.99981 h -19.0216 l -16.0005,-13.99981 H 3761.9996 V 514.99066 Z m 0,0"
       transform="matrix(0.139644,0,0,0.139232,4.42107,2.32812e-5)"
       id="18" />
    <path
       style="fill:#303030;fill-opacity:1;fill-rule:evenodd;stroke:#000000;stroke-width:1;stroke-linecap:round;stroke-linejoin:round;stroke-miterlimit:10;stroke-opacity:1"
       d="m 4126.0112,514.99066 v -14.98175 h 127.9761 v 14.98175 h 75.0234 v 192.01336 h -46.0155 l -14.9935,13.99981 h -18.9936 l -16.0005,-13.99981 H 4050.9878 V 514.99066 Z m 0,0"
       transform="matrix(0.139644,0,0,0.139232,4.42107,2.32812e-5)"
       id="20" />
    <path
       style="fill:#303030;fill-opacity:1;fill-rule:evenodd;stroke:#000000;stroke-width:1;stroke-linecap:round;stroke-linejoin:round;stroke-miterlimit:10;stroke-opacity:1"
       d="m 6329.9974,514.99066 v -14.98175 h 128.0041 v 14.98175 h 74.9954 v 192.01336 h -45.9875 l -15.0214,13.99981 h -18.9936 l -16.0006,-13.99981 H 6255.002 V 514.99066 Z m 0,0"
       transform="matrix(0.139644,0,0,0.139232,4.42107,2.32812e-5)"
       id="32" />
    <path
       style="fill:#303030;fill-opacity:1;fill-rule:evenodd;stroke:#000000;stroke-width:1;stroke-linecap:round;stroke-linejoin:round;stroke-miterlimit:10;stroke-opacity:1"
       d="m 6619.0136,514.99066 v -14.98175 h 127.9761 v 14.98175 h 75.0234 v 192.01336 h -46.0155 l -14.9934,13.99981 h -18.9937 L 6726.01,707.00402 H 6543.9903 V 514.99066 Z m 0,0"
       transform="matrix(0.139644,0,0,0.139232,4.42107,2.32812e-5)"
       id="34" />
    <path
       style="fill:#303030;fill-opacity:1;fill-rule:evenodd;stroke:#000000;stroke-width:1;stroke-linecap:round;stroke-linejoin:round;stroke-miterlimit:10;stroke-opacity:1"
       d="m 6909.0089,514.99066 v -14.98175 h 128.004 v 14.98175 h 74.9954 v 192.01336 h -46.0154 l -14.9935,13.99981 h -18.9936 l -16.0005,-13.99981 H 6834.0135 V 514.99066 Z m 0,0"
       transform="matrix(0.139644,0,0,0.139232,4.42107,2.32812e-5)"
       id="36" />
    <path
       style="fill:#303030;fill-opacity:1;fill-rule:evenodd;stroke:#000000;stroke-width:1;stroke-linecap:round;stroke-linejoin:round;stroke-miterlimit:10;stroke-opacity:1"
       d="m 7197.9971,514.99066 v -14.98175 h 128.0041 v 14.98175 h 74.9954 v 192.01336 h -45.9875 l -15.0215,13.99981 h -18.9936 l -16.0005,-13.99981 H 7123.0017 V 514.99066 Z m 0,0"
       transform="matrix(0.139644,0,0,0.139232,4.42107,2.32812e-5)"
       id="38" />
    <path
       style="fill:#303030;fill-opacity:1;fill-rule:evenodd;stroke:#000000;stroke-width:1;stroke-linecap:round;stroke-linejoin:round;stroke-miterlimit:10;stroke-opacity:1"
       d="m 7777.0085,514.99066 v -14.98175 h 128.0041 v 14.98175 h 74.9954 v 192.01336 h -46.0155 l -14.9934,13.99981 h -18.9937 l -16.0005,-13.99981 H 7702.0131 V 514.99066 Z m 0,0"
       transform="matrix(0.139644,0,0,0.139232,4.42107,2.32812e-5)"
       id="42" />
    <path
       style="fill:#303030;fill-opacity:1;fill-rule:evenodd;stroke:#000000;stroke-width:1;stroke-linecap:round;stroke-linejoin:round;stroke-miterlimit:10;stroke-opacity:1"
       d="m 7905.0126,418.00203 v 15.00981 h -128.0041 v -15.00981 h -74.9954 V 225.98867 h 45.9875 l 14.9935,-13.9998 h 18.9936 l 16.0005,13.9998 h 182.0198 v 192.01336 z m 0,0"
       transform="matrix(0.139644,0,0,0.139232,4.42107,2.32812e-5)"
       id="41" />
    <path
       style="fill:#303030;fill-opacity:1;fill-rule:evenodd;stroke:#000000;stroke-width:1;stroke-linecap:round;stroke-linejoin:round;stroke-miterlimit:10;stroke-opacity:1"
       d="m 7615.9964,418.00203 v 15.00981 h -128.0041 v -15.00981 h -74.9954 V 225.98867 h 46.0155 l 14.9935,-13.9998 h 18.9936 L 7509,225.98867 h 181.9918 v 192.01336 z m 0,0"
       transform="matrix(0.139644,0,0,0.139232,4.42107,2.32812e-5)"
       id="39" />
    <path
       style="fill:#303030;fill-opacity:1;fill-rule:evenodd;stroke:#000000;stroke-width:1;stroke-linecap:round;stroke-linejoin:round;stroke-miterlimit:10;stroke-opacity:1"
       d="m 7326.0012,418.00203 v 15.00981 h -128.0041 v -15.00981 h -74.9954 V 225.98867 h 45.9875 l 15.0214,-13.9998 h 18.9936 l 16.0006,13.9998 h 181.9918 v 192.01336 z m 0,0"
       transform="matrix(0.139644,0,0,0.139232,4.42107,2.32812e-5)"
       id="37" />
    <path
       style="fill:#303030;fill-opacity:1;fill-rule:evenodd;stroke:#000000;stroke-width:1;stroke-linecap:round;stroke-linejoin:round;stroke-miterlimit:10;stroke-opacity:1"
       d="m 7037.0129,418.00203 v 15.00981 h -128.004 v -15.00981 h -74.9954 V 225.98867 h 45.9875 l 14.9934,-13.9998 h 18.9936 l 16.0006,13.9998 h 182.0197 v 192.01336 z m 0,0"
       transform="matrix(0.139644,0,0,0.139232,4.42107,2.32812e-5)"
       id="35" />
    <path
       style="fill:#303030;fill-opacity:1;fill-rule:evenodd;stroke:#000000;stroke-width:1;stroke-linecap:round;stroke-linejoin:round;stroke-miterlimit:10;stroke-opacity:1"
       d="m 6746.9897,418.00203 v 15.00981 h -127.9761 v -15.00981 h -75.0233 V 225.98867 h 46.0154 l 14.9935,-13.9998 h 18.9936 l 16.0005,13.9998 h 182.0198 v 192.01336 z m 0,0"
       transform="matrix(0.139644,0,0,0.139232,4.42107,2.32812e-5)"
       id="33" />
    <path
       style="fill:#303030;fill-opacity:1;fill-rule:evenodd;stroke:#000000;stroke-width:1;stroke-linecap:round;stroke-linejoin:round;stroke-miterlimit:10;stroke-opacity:1"
       d="m 6458.0015,418.00203 v 15.00981 H 6329.9974 V 418.00203 H 6255.002 V 225.98867 h 45.9875 l 15.0215,-13.9998 h 18.9936 l 16.0005,13.9998 h 181.9918 v 192.01336 z m 0,0"
       transform="matrix(0.139644,0,0,0.139232,4.42107,2.32812e-5)"
       id="31" />
    <path
       style="fill:#303030;fill-opacity:1;fill-rule:evenodd;stroke:#000000;stroke-width:1;stroke-linecap:round;stroke-linejoin:round;stroke-miterlimit:10;stroke-opacity:1"
       d="m 5687.991,418.00203 v 15.00981 h -128.0041 v -15.00981 h -74.9954 V 225.98867 h 46.0155 l 14.9935,-13.9998 h 18.9936 l 16.0005,13.9998 h 181.9918 v 192.01336 z m 0,0"
       transform="matrix(0.139644,0,0,0.139232,4.42107,2.32812e-5)"
       id="27" />
    <path
       style="fill:#303030;fill-opacity:1;fill-rule:evenodd;stroke:#000000;stroke-width:1;stroke-linecap:round;stroke-linejoin:round;stroke-miterlimit:10;stroke-opacity:1"
       d="m 5397.9957,418.00203 v 15.00981 h -128.004 v -15.00981 h -74.9954 V 225.98867 h 46.0154 l 14.9935,-13.9998 h 18.9936 l 16.0005,13.9998 h 181.9918 v 192.01336 z m 0,0"
       transform="matrix(0.139644,0,0,0.139232,4.42107,2.32812e-5)"
       id="25" />
    <path
       style="fill:#303030;fill-opacity:1;fill-rule:evenodd;stroke:#000000;stroke-width:1;stroke-linecap:round;stroke-linejoin:round;stroke-miterlimit:10;stroke-opacity:1"
       d="m 5109.0075,418.00203 v 15.00981 h -128.004 v -15.00981 h -74.9954 V 225.98867 h 45.9874 l 14.9935,-13.9998 h 19.0216 l 16.0005,13.9998 h 181.9918 v 192.01336 z m 0,0"
       transform="matrix(0.139644,0,0,0.139232,4.42107,2.32812e-5)"
       id="23" />
    <path
       style="fill:#303030;fill-opacity:1;fill-rule:evenodd;stroke:#000000;stroke-width:1;stroke-linecap:round;stroke-linejoin:round;stroke-miterlimit:10;stroke-opacity:1"
       d="m 4981.0035,514.99066 v -14.98175 h 128.004 v 14.98175 h 74.9954 v 192.01336 h -46.0154 l -14.9935,13.99981 h -18.9936 l -16.0005,-13.99981 H 4906.0081 V 514.99066 Z m 0,0"
       transform="matrix(0.139644,0,0,0.139232,4.42107,2.32812e-5)"
       id="24" />
    <path
       style="fill:#303030;fill-opacity:1;fill-rule:evenodd;stroke:#000000;stroke-width:1;stroke-linecap:round;stroke-linejoin:round;stroke-miterlimit:10;stroke-opacity:1"
       d="m 5269.9917,514.99066 v -14.98175 h 128.004 v 14.98175 h 74.9954 v 192.01336 h -45.9874 l -14.9935,13.99981 h -19.0216 l -16.0005,-13.99981 H 5194.9963 V 514.99066 Z m 0,0"
       transform="matrix(0.139644,0,0,0.139232,4.42107,2.32812e-5)"
       id="26" />
    <path
       style="fill:#303030;fill-opacity:1;fill-rule:evenodd;stroke:#000000;stroke-width:1;stroke-linecap:round;stroke-linejoin:round;stroke-miterlimit:10;stroke-opacity:1"
       d="m 5849.0031,514.99066 v -14.98175 h 128.0041 v 14.98175 h 74.9954 v 192.01336 h -46.0155 l -14.9935,13.99981 H 5972 l -16.0005,-13.99981 H 5774.0077 V 514.99066 Z m 0,0"
       transform="matrix(0.139644,0,0,0.139232,4.42107,2.32812e-5)"
       id="30" />
    <path
       style="display:inline;fill:#303030;fill-opacity:1;fill-rule:evenodd;stroke:#000000;stroke-width:1;stroke-linecap:round;stroke-linejoin:round;stroke-miterlimit:10;stroke-opacity:1"
       d="m 951.00107,750.9954 v 15.00981 H 1080.9912 V 750.9954 h 74.9954 V 559.01009 H 876.00567 V 750.9954 Z m 0,0"
       transform="matrix(0.139644,0,0,0.139232,4.42107,2.32812e-5)"
       id="path131" />
  </g>
</svg>
